<svg width="274" height="69" viewBox="0 0 274 69" fill="none" xmlns="http://www.w3.org/2000/svg">
<path d="M91.1286 30.9999H96.9794V10.3189L109.087 30.9999H115.669V1.94899H109.819V21.086L98.7671 1.94899H91.1286V30.9999Z" fill="white"/>
<path d="M129.887 26.9775C126.556 26.9775 124.687 24.5396 124.687 20.4766V20.1515C124.687 16.0885 126.637 13.7319 129.887 13.7319C133.178 13.7319 135.088 16.1697 135.088 20.2328V20.5172C135.088 24.5396 133.178 26.9775 129.887 26.9775ZM129.847 31.4468C136.226 31.4468 141.061 27.1806 141.061 20.4766V20.1515C141.061 13.5287 136.266 9.2625 129.887 9.2625C123.508 9.2625 118.673 13.61 118.673 20.2734V20.5985C118.673 27.2212 123.508 31.4468 129.847 31.4468Z" fill="white"/>
<path d="M143.385 21.8986H153.787V17.2261H143.385V21.8986Z" fill="white"/>
<path d="M170.984 31.4468C178.135 31.4468 183.295 27.7494 184.026 20.5578H177.566C177.038 24.2958 174.519 26.1242 170.903 26.1242C166.108 26.1242 163.345 22.63 163.345 16.6167V16.2916C163.345 10.2783 166.271 6.70277 170.862 6.70277C174.519 6.70277 176.469 8.57178 176.957 12.066H183.701C183.011 4.91502 177.81 1.50205 170.821 1.50205C162.573 1.50205 156.398 7.51539 156.398 16.3322V16.6573C156.398 25.596 161.476 31.4468 170.984 31.4468Z" fill="white"/>
<path d="M196.461 26.9775C193.13 26.9775 191.261 24.5396 191.261 20.4766V20.1515C191.261 16.0885 193.211 13.7319 196.461 13.7319C199.752 13.7319 201.662 16.1697 201.662 20.2328V20.5172C201.662 24.5396 199.752 26.9775 196.461 26.9775ZM196.421 31.4468C202.8 31.4468 207.635 27.1806 207.635 20.4766V20.1515C207.635 13.5287 202.84 9.2625 196.461 9.2625C190.082 9.2625 185.247 13.61 185.247 20.2734V20.5985C185.247 27.2212 190.082 31.4468 196.421 31.4468Z" fill="white"/>
<path d="M218.329 31.4468C221.458 31.4468 224.058 29.6185 225.155 27.465V30.9999H231.006V0.120605H225.155V12.9193C223.977 10.7658 221.864 9.2625 218.451 9.2625C213.128 9.2625 209.106 13.3662 209.106 20.3547V20.6797C209.106 27.7494 213.169 31.4468 218.329 31.4468ZM220.076 26.8556C217.151 26.8556 215.119 24.7834 215.119 20.5578V20.2328C215.119 16.0072 216.948 13.7725 220.239 13.7725C223.449 13.7725 225.318 15.9259 225.318 20.1515V20.4766C225.318 24.7834 223.164 26.8556 220.076 26.8556Z" fill="white"/>
<path d="M244.809 31.4468C250.619 31.4468 254.276 28.8871 254.967 24.2958H249.4C249.035 26.0836 247.694 27.2619 244.971 27.2619C241.762 27.2619 239.852 25.2303 239.689 21.6955H255.007V20.0703C255.007 12.4723 250.132 9.2625 244.646 9.2625C238.471 9.2625 233.717 13.61 233.717 20.314V20.6391C233.717 27.4244 238.389 31.4468 244.809 31.4468ZM239.771 18.0794C240.218 15.0727 242.005 13.3256 244.646 13.3256C247.45 13.3256 249.075 14.8695 249.278 18.0794H239.771Z" fill="white"/>
<path d="M104.212 68.4468C111.363 68.4468 116.523 64.7494 117.254 57.5578H110.794C110.266 61.2958 107.747 63.1242 104.13 63.1242C99.336 63.1242 96.5731 59.63 96.5731 53.6166V53.2916C96.5731 47.2783 99.4985 43.7028 104.09 43.7028C107.747 43.7028 109.697 45.5718 110.184 49.066H116.929C116.238 41.915 111.038 38.502 104.049 38.502C95.8011 38.502 89.6252 44.5154 89.6252 53.3322V53.6573C89.6252 62.596 94.7041 68.4468 104.212 68.4468Z" fill="white"/>
<path d="M129.689 63.9775C126.357 63.9775 124.488 61.5396 124.488 57.4766V57.1515C124.488 53.0885 126.439 50.7319 129.689 50.7319C132.98 50.7319 134.89 53.1697 134.89 57.2328V57.5172C134.89 61.5396 132.98 63.9775 129.689 63.9775ZM129.648 68.4468C136.027 68.4468 140.862 64.1806 140.862 57.4766V57.1515C140.862 50.5287 136.068 46.2625 129.689 46.2625C123.31 46.2625 118.475 50.61 118.475 57.2734V57.5985C118.475 64.2212 123.31 68.4468 129.648 68.4468Z" fill="white"/>
<path d="M143.593 67.9999H149.485V55.7294C149.485 52.6009 151.394 51.0569 153.913 51.0569C156.514 51.0569 157.651 52.4384 157.651 55.3231V67.9999H163.543V54.4699C163.543 48.7816 160.577 46.2625 156.392 46.2625C152.857 46.2625 150.541 48.0096 149.485 50.1224V46.7501H143.593V67.9999Z" fill="white"/>
<path d="M168.347 67.9999H174.198V50.935H178.83V46.7501H174.198V44.1497C174.198 42.5245 174.97 41.3462 176.839 41.3462C177.692 41.3462 178.423 41.5087 178.992 41.7119V37.2831C178.058 36.9987 177.204 36.8768 175.945 36.8768C171.232 36.8768 168.347 39.3553 168.347 44.3122V46.7501H165.543V50.935H168.347V67.9999Z" fill="white"/>
<path d="M186.906 67.9999H208.846V63.0023H197.551L203.036 57.6391C206.409 54.3886 208.643 51.2194 208.643 47.3595C208.643 42.1182 204.986 38.5427 198.567 38.5427C192.066 38.5427 188.003 42.1994 187.678 48.9035H193.65C194.097 45.0842 195.723 43.5809 198.282 43.5809C200.801 43.5809 202.142 45.1248 202.142 47.5221C202.142 50.163 200.355 52.7228 197.551 55.6888L186.906 66.9435V67.9999Z" fill="white"/>
<path d="M223.713 63.2867C219.65 63.2867 217.496 60.2394 217.496 54.1448V52.7634C217.496 46.7501 219.568 43.6215 223.631 43.6215C227.654 43.6215 229.685 46.9126 229.685 52.7634V54.0636C229.685 60.1582 227.816 63.2867 223.713 63.2867ZM223.55 68.4468C231.392 68.4468 236.227 62.9211 236.227 54.023V52.6821C236.227 43.6621 231.067 38.5427 223.591 38.5427C216.115 38.5427 210.914 43.8653 210.914 52.804V54.1855C210.914 63.0836 215.83 68.4468 223.55 68.4468Z" fill="white"/>
<path d="M237.32 67.9999H259.26V63.0023H247.965L253.45 57.6391C256.822 54.3886 259.057 51.2194 259.057 47.3595C259.057 42.1182 255.4 38.5427 248.981 38.5427C242.48 38.5427 238.417 42.1994 238.092 48.9035H244.064C244.511 45.0842 246.136 43.5809 248.696 43.5809C251.215 43.5809 252.556 45.1248 252.556 47.5221C252.556 50.163 250.768 52.7228 247.965 55.6888L237.32 66.9435V67.9999Z" fill="white"/>
<path d="M266.889 67.9999H273.472V38.949H267.702L260.998 43.7028V49.3098L266.889 45.4499V67.9999Z" fill="white"/>
<path d="M17.1075 0.445312H34.0662V34.133L1.42407e-06 67.8245V17.3665C-0.00381295 8.02325 7.65546 0.449084 17.1037 0.445312H17.1075Z" fill="white"/>
<path d="M34.066 34.1332H68.1361V0.445557L34.066 34.1332Z" fill="#FF80ED"/>
<path d="M51.0932 67.751C60.5014 67.751 68.1282 60.209 68.1282 50.9053C68.1282 41.6017 60.5014 34.0596 51.0932 34.0596C41.6851 34.0596 34.0582 41.6017 34.0582 50.9053C34.0582 60.209 41.6851 67.751 51.0932 67.751Z" fill="white"/>
</svg>
