<svg width="710" height="710" viewBox="0 0 710 710" fill="none" xmlns="http://www.w3.org/2000/svg">
<g clip-path="url(#clip0)">
<path fill-rule="evenodd" clip-rule="evenodd" d="M526.019 189.713C535.356 195.107 536.313 203.386 528.134 208.111L492.046 228.946L488.245 231.141H488.238L455.089 250.283L382.753 292.039C400.462 299.475 420.654 304.127 441.462 305.981C455.327 307.199 469.273 307.199 483.138 305.981C510.552 303.538 536.888 296.263 557.89 284.135C584.166 268.963 597.304 248.951 597.304 228.953V228.946C597.304 208.941 584.166 188.95 557.877 173.764L526.019 189.713Z" fill="#EFEEEA"/>
<path d="M524.906 189.105C525.284 189.301 525.655 189.503 526.019 189.713C535.356 195.107 536.313 203.386 528.134 208.111L492.046 228.946L488.245 231.141H488.238L455.089 250.283L382.753 292.039C400.462 299.475 420.654 304.127 441.462 305.981C455.327 307.199 469.273 307.199 483.138 305.981C510.552 303.538 536.888 296.263 557.89 284.135C584.166 268.963 597.304 248.951 597.304 228.953V228.946C597.304 208.941 584.166 188.95 557.877 173.764C556.815 173.151 555.74 172.55 554.651 171.962" stroke="#0A047A" stroke-width="2" stroke-miterlimit="10" stroke-linejoin="round"/>
<path fill-rule="evenodd" clip-rule="evenodd" d="M327.303 715.047H369.265C369.265 676.101 376 323 372 300.109C380.008 298.977 382.707 292.154 382.752 292.039L382.753 292.04C400.462 299.475 420.654 304.127 441.462 305.981C455.327 307.199 469.273 307.199 483.138 305.981C510.552 303.538 536.888 296.263 557.89 284.135C584.166 268.963 597.304 248.951 597.304 228.953V746H327.303V715.047Z" fill="url(#paint0_linear)"/>
<path d="M369.265 715.047H327.303V746H597.304V228.953C597.304 248.951 584.166 268.963 557.89 284.135C536.888 296.263 510.552 303.538 483.138 305.981C469.273 307.199 455.327 307.199 441.462 305.981C420.654 304.127 400.462 299.475 382.753 292.04L382.752 292.039C382.706 292.156 379.896 299.26 371.5 300.171" stroke="#0A047A" stroke-width="2" stroke-miterlimit="10" stroke-linejoin="round"/>
</g>
<defs>
<linearGradient id="paint0_linear" x1="462.303" y1="228.953" x2="462.303" y2="746" gradientUnits="userSpaceOnUse">
<stop stop-color="#FF80ED"/>
<stop offset="1" stop-color="#FEC810"/>
</linearGradient>
<clipPath id="clip0">
<rect width="710" height="710" fill="white"/>
</clipPath>
</defs>
</svg>
