<svg width="710" height="710" viewBox="0 0 710 710" fill="none" xmlns="http://www.w3.org/2000/svg">
<g clip-path="url(#clip0)">
<path d="M1082.94 -157.043V-89.3877L297.781 363.903L297.789 296.248L1082.94 -157.043Z" fill="#FEC810" stroke="#0A047A" stroke-width="2" stroke-linecap="round" stroke-linejoin="round"/>
<path d="M297.781 363.903L145.442 275.96L145.435 208.305L297.788 296.248L297.781 363.903Z" fill="#3874FF" stroke="#0A047A" stroke-width="2" stroke-linecap="round" stroke-linejoin="round"/>
<path fill-rule="evenodd" clip-rule="evenodd" d="M196.137 237.572L297.789 296.248L1082.94 -157.043L980.582 -216.139L979.575 -215.555L776.6 -98.158C775.825 -92.9325 775.959 -87.606 777 -82.4152C778.841 -74.0221 783.959 -64.4669 796.633 -57.8723L777 -46.5L307.879 224.582C296.631 231.084 276.915 230.319 264.065 222.885C254.654 217.44 251.43 209.863 254.797 203.644L196.137 237.572Z" fill="url(#paint0_linear)"/>
<path d="M196.137 237.572L297.789 296.248L1082.94 -157.043L980.582 -216.139L979.575 -215.555L776.6 -98.158C775.825 -92.9325 775.959 -87.606 777 -82.4152C778.841 -74.0221 783.959 -64.4669 796.633 -57.8723L777 -46.5L307.879 224.582C296.631 231.084 276.915 230.319 264.065 222.885C254.654 217.44 251.43 209.863 254.797 203.644" stroke="#0A047A" stroke-width="2" stroke-linecap="round" stroke-linejoin="round"/>
</g>
<defs>
<linearGradient id="paint0_linear" x1="749.822" y1="-12.1538" x2="-201.458" y2="252.842" gradientUnits="userSpaceOnUse">
<stop offset="0.05" stop-color="#1876FF"/>
<stop offset="0.1" stop-color="#4876FC"/>
<stop offset="0.15" stop-color="#7376FA"/>
<stop offset="0.21" stop-color="#9977F8"/>
<stop offset="0.27" stop-color="#B977F6"/>
<stop offset="0.34" stop-color="#D277F5"/>
<stop offset="0.41" stop-color="#E677F3"/>
<stop offset="0.49" stop-color="#F477F3"/>
<stop offset="0.59" stop-color="#FD77F2"/>
<stop offset="0.77" stop-color="#FF77F2"/>
</linearGradient>
<clipPath id="clip0">
<rect width="710" height="710" fill="white"/>
</clipPath>
</defs>
</svg>
