<svg width="838" height="709" viewBox="0 0 838 709" fill="none" xmlns="http://www.w3.org/2000/svg">
<path d="M193.329 349.612V396.055L732.261 707.196L732.259 660.758L193.329 349.612Z" fill="#EFEEEA" stroke="#3874FF" stroke-width="2" stroke-linecap="round" stroke-linejoin="round"/>
<path d="M732.261 707.195L836.83 646.83L836.839 600.391L732.259 660.757L732.261 707.195Z" fill="#0A047A" stroke="#3874FF" stroke-width="2" stroke-linecap="round" stroke-linejoin="round"/>
<path d="M193.329 349.612L297.899 289.24L836.839 600.392L732.259 660.758L193.329 349.612Z" fill="#FEC810" stroke="#3874FF" stroke-width="2" stroke-linecap="round" stroke-linejoin="round"/>
<path d="M388.529 341.548L283.934 401.922" stroke="#3874FF" stroke-width="2" stroke-linecap="round" stroke-linejoin="round"/>
<path d="M373.623 332.942L269.027 393.316" stroke="#3874FF" stroke-width="2" stroke-linecap="round" stroke-linejoin="round"/>
<path d="M358.721 324.335L254.124 384.709" stroke="#3874FF" stroke-width="2" stroke-linecap="round" stroke-linejoin="round"/>
<path d="M343.814 315.734L239.217 376.107" stroke="#3874FF" stroke-width="2" stroke-linecap="round" stroke-linejoin="round"/>
<path d="M328.912 307.127L224.314 367.5" stroke="#3874FF" stroke-width="2" stroke-linecap="round" stroke-linejoin="round"/>
<path d="M314.006 298.524L209.406 358.896" stroke="#3874FF" stroke-width="2" stroke-linecap="round" stroke-linejoin="round"/>
<path d="M163.636 1L1 94.887L255.136 241.671L417.743 147.774L163.636 1Z" fill="url(#paint0_linear)" stroke="#3874FF" stroke-width="2" stroke-linecap="round" stroke-linejoin="round"/>
<path fill-rule="evenodd" clip-rule="evenodd" d="M383.378 153.013C388.637 149.972 388.64 144.999 383.383 141.959C380.418 140.461 377.143 139.68 373.821 139.681C370.5 139.681 367.224 140.463 364.261 141.963C329.701 161.952 322.446 165.804 318.946 167.827C313.687 170.868 313.684 175.841 318.942 178.88C321.906 180.379 325.181 181.16 328.503 181.159C331.825 181.159 335.1 180.377 338.064 178.877C353.119 170.169 368.321 161.717 383.378 153.013Z" fill="#0A047A" stroke="#3874FF" stroke-width="2" stroke-linecap="round" stroke-linejoin="round"/>
<path d="M389.053 275.26V341.534L283.907 402.237V336.025C284.302 319.237 288.313 302.732 295.665 287.635C305.306 267.058 320.045 248.907 336.49 239.41C365.393 222.677 389.053 238.814 389.053 275.26Z" fill="#EFEEEA" stroke="#3874FF" stroke-width="2" stroke-linecap="round" stroke-linejoin="round"/>
<path d="M389.053 341.535L283.907 402.237V336.025C284.302 319.238 288.313 302.733 295.665 287.636L389.053 341.535Z" fill="url(#paint1_linear)" stroke="#3874FF" stroke-width="2" stroke-linecap="round" stroke-linejoin="round"/>
<path d="M369.935 330.501V235.291" stroke="#3874FF" stroke-width="2" stroke-linecap="round" stroke-linejoin="round"/>
<path d="M350.499 319.295V233.854" stroke="#3874FF" stroke-width="2" stroke-linecap="round" stroke-linejoin="round"/>
<path d="M331.653 308.414V242.808" stroke="#3874FF" stroke-width="2" stroke-linecap="round" stroke-linejoin="round"/>
<path d="M312.513 297.366V260.59" stroke="#3874FF" stroke-width="2" stroke-linecap="round" stroke-linejoin="round"/>
<path fill-rule="evenodd" clip-rule="evenodd" d="M255.136 465.594L255.136 241.672L417.743 147.774V358.018L389.052 341.545V275.26C389.052 238.814 365.392 222.677 336.49 239.41C320.045 248.907 305.306 267.058 295.665 287.635C288.313 302.732 284.302 319.237 283.907 336.025V448.983L255.136 465.594Z" fill="#0A047A" stroke="#3874FF" stroke-width="2" stroke-linecap="round" stroke-linejoin="round"/>
<path d="M163.636 1L1 94.887L255.136 241.671L417.743 147.774L163.636 1Z" stroke="#3874FF" stroke-width="2" stroke-linecap="round" stroke-linejoin="round"/>
<path d="M255.137 241.672V465.423L92.5283 371.542V147.774L255.137 241.672Z" fill="#3874FF" stroke="#3874FF" stroke-width="2" stroke-linecap="round" stroke-linejoin="round"/>
<defs>
<linearGradient id="paint0_linear" x1="510116" y1="122155" x2="517325" y2="99171.1" gradientUnits="userSpaceOnUse">
<stop offset="0.1668" stop-color="#FEC810"/>
<stop offset="1" stop-color="#FF80ED"/>
</linearGradient>
<linearGradient id="paint1_linear" x1="430" y1="362.5" x2="284" y2="269.5" gradientUnits="userSpaceOnUse">
<stop offset="0.0252325" stop-color="#FF80ED"/>
<stop offset="1" stop-color="#09047A"/>
</linearGradient>
</defs>
</svg>
