<svg width="710" height="710" viewBox="0 0 710 710" fill="none" xmlns="http://www.w3.org/2000/svg">
<g clip-path="url(#clip0)">
<path d="M303 300.447V534.694L110 423.254L110.007 189L303 300.447Z" fill="#EFEEEA" stroke="#0A047A" stroke-width="2" stroke-linecap="round" stroke-linejoin="round"/>
<path d="M124.476 409.09C121.821 407.554 119.648 408.807 119.648 411.879C119.743 413.553 120.229 415.181 121.067 416.633C121.906 418.085 123.073 419.32 124.476 420.239C127.13 421.768 129.303 420.515 129.303 417.45C129.209 415.776 128.723 414.148 127.884 412.696C127.046 411.244 125.878 410.009 124.476 409.09V409.09Z" stroke="#0A047A" stroke-width="2" stroke-linecap="round" stroke-linejoin="round"/>
<path d="M124.476 209.302C121.821 207.766 119.648 209.018 119.648 212.091C119.743 213.765 120.229 215.393 121.067 216.845C121.906 218.297 123.073 219.532 124.476 220.451C127.13 221.98 129.303 220.727 129.303 217.662C129.209 215.988 128.723 214.359 127.884 212.907C127.046 211.455 125.878 210.22 124.476 209.302Z" stroke="#0A047A" stroke-width="2" stroke-linecap="round" stroke-linejoin="round"/>
<path d="M288.538 303.236C285.884 301.7 283.711 302.952 283.711 306.018C283.804 307.692 284.29 309.321 285.128 310.773C285.967 312.225 287.135 313.46 288.538 314.377C291.193 315.906 293.366 314.654 293.366 311.596C293.272 309.921 292.787 308.293 291.948 306.84C291.11 305.388 289.942 304.154 288.538 303.236V303.236Z" stroke="#0A047A" stroke-width="2" stroke-linecap="round" stroke-linejoin="round"/>
<path fill-rule="evenodd" clip-rule="evenodd" d="M302.571 448.661L302.515 533.964L359.006 566.578H416.365C418.471 566.577 420.557 566.991 422.504 567.797C424.45 568.602 426.218 569.783 427.708 571.272C429.198 572.761 430.38 574.53 431.186 576.475C431.992 578.421 432.407 580.507 432.407 582.614C432.41 584.721 431.997 586.809 431.192 588.757C430.387 590.705 429.205 592.475 427.715 593.966C426.225 595.457 424.456 596.639 422.508 597.445C420.56 598.251 418.473 598.665 416.365 598.663L414.581 598.664L686.128 755.437L760.01 712.759L302.571 448.661Z" fill="url(#paint0_linear)" stroke="#0A047A" stroke-width="2" stroke-linecap="round" stroke-linejoin="round"/>
<path fill-rule="evenodd" clip-rule="evenodd" d="M114.956 192L302.515 300.305L490.082 192H351.567V192.641C352.245 199.998 347.797 207.504 338.123 213.096C320.04 223.532 290.462 223.539 272.387 213.096C263.349 207.871 258.837 200.987 258.837 194.095V192H114.956Z" fill="#3874FF"/>
<path d="M114.956 192L302.515 300.305L490.082 192M351.567 192V192.641C352.245 199.998 347.797 207.504 338.123 213.096C320.04 223.532 290.462 223.539 272.386 213.096C263.349 207.871 258.837 200.987 258.837 194.095V192" stroke="#0A047A" stroke-width="2" stroke-linecap="round" stroke-linejoin="round"/>
<path fill-rule="evenodd" clip-rule="evenodd" d="M379.189 404.425L302.572 448.661L755.875 710.371L830.47 667.282C826.568 666.587 822.977 665.385 819.992 663.666L379.189 404.425Z" fill="url(#paint1_linear)" stroke="#0A047A" stroke-width="2" stroke-linecap="round" stroke-linejoin="round"/>
<path d="M460.347 539.775L302.572 448.661L144.754 539.775H460.347Z" fill="url(#paint2_linear)" stroke="#0A047A" stroke-width="2" stroke-linecap="round" stroke-linejoin="round"/>
<path fill-rule="evenodd" clip-rule="evenodd" d="M144.754 539.775H460.333V625.636H144.754V539.775ZM302.543 598.705H188.729C184.479 598.705 180.402 597.02 177.393 594.02C174.383 591.019 172.685 586.948 172.672 582.698V582.642C172.673 580.534 173.089 578.448 173.897 576.502C174.704 574.555 175.887 572.787 177.379 571.298C178.87 569.809 180.639 568.628 182.587 567.823C184.535 567.018 186.622 566.605 188.729 566.607L302.543 566.578L302.55 566.578L416.365 566.578C418.471 566.577 420.557 566.991 422.504 567.797C424.45 568.602 426.219 569.783 427.708 571.272C429.198 572.761 430.38 574.53 431.186 576.475C431.992 578.421 432.407 580.507 432.407 582.614C432.41 584.721 431.997 586.809 431.192 588.757C430.387 590.705 429.205 592.475 427.715 593.966C426.225 595.457 424.456 596.639 422.508 597.445C420.56 598.251 418.473 598.665 416.365 598.663L302.55 598.705H302.543Z" fill="#EFEEEA"/>
<path d="M460.333 539.775H461.333C461.333 539.223 460.885 538.775 460.333 538.775V539.775ZM144.754 539.775V538.775C144.201 538.775 143.754 539.223 143.754 539.775H144.754ZM460.333 625.636V626.636C460.885 626.636 461.333 626.188 461.333 625.636H460.333ZM144.754 625.636H143.754C143.754 626.188 144.201 626.636 144.754 626.636V625.636ZM188.729 598.705V597.705H188.729L188.729 598.705ZM177.393 594.02L178.099 593.312L177.393 594.02ZM172.672 582.698H171.672L171.672 582.701L172.672 582.698ZM172.672 582.642L171.672 582.641V582.642H172.672ZM173.897 576.502L172.973 576.118H172.973L173.897 576.502ZM177.379 571.298L176.672 570.59L177.379 571.298ZM182.587 567.823L182.969 568.747H182.969L182.587 567.823ZM188.729 566.607L188.728 567.607H188.729L188.729 566.607ZM302.543 566.578L302.544 567.578H302.544L302.543 566.578ZM302.55 566.578V565.578H302.55L302.55 566.578ZM416.365 566.578V567.578H416.365L416.365 566.578ZM422.504 567.797L422.121 568.721L422.504 567.797ZM431.186 576.475L430.262 576.858V576.858L431.186 576.475ZM432.407 582.614H431.407V582.615L432.407 582.614ZM431.192 588.757L430.268 588.375V588.375L431.192 588.757ZM427.715 593.966L428.423 594.673L428.423 594.673L427.715 593.966ZM416.365 598.663L416.366 597.663H416.365L416.365 598.663ZM302.55 598.705V599.705H302.551L302.55 598.705ZM460.333 538.775H144.754V540.775H460.333V538.775ZM461.333 625.636V539.775H459.333V625.636H461.333ZM144.754 626.636H460.333V624.636H144.754V626.636ZM143.754 539.775V625.636H145.754V539.775H143.754ZM188.729 599.705H302.543V597.705H188.729V599.705ZM176.687 594.728C179.884 597.916 184.214 599.705 188.729 599.705L188.729 597.705C184.744 597.705 180.921 596.125 178.099 593.312L176.687 594.728ZM171.672 582.701C171.686 587.216 173.489 591.541 176.687 594.728L178.099 593.312C175.276 590.498 173.685 586.68 173.672 582.695L171.672 582.701ZM171.672 582.642V582.698H173.672V582.642H171.672ZM172.973 576.118C172.115 578.186 171.673 580.403 171.672 582.641L173.672 582.642C173.673 580.666 174.063 578.71 174.821 576.885L172.973 576.118ZM176.672 570.59C175.088 572.172 173.831 574.051 172.973 576.118L174.821 576.885C175.578 575.06 176.687 573.402 178.085 572.005L176.672 570.59ZM182.205 566.899C180.136 567.754 178.256 569.008 176.672 570.59L178.085 572.005C179.483 570.609 181.143 569.502 182.969 568.747L182.205 566.899ZM188.73 565.607C186.491 565.605 184.274 566.044 182.205 566.899L182.969 568.747C184.795 567.992 186.752 567.605 188.728 567.607L188.73 565.607ZM302.543 565.578L188.729 565.607L188.729 567.607L302.544 567.578L302.543 565.578ZM302.55 565.578L302.543 565.578L302.544 567.578L302.551 567.578L302.55 565.578ZM416.365 565.578L302.55 565.578V567.578L416.365 567.578V565.578ZM422.886 566.873C420.818 566.017 418.602 565.577 416.365 565.578L416.365 567.578C418.34 567.577 420.296 567.966 422.121 568.721L422.886 566.873ZM428.415 570.565C426.833 568.983 424.954 567.728 422.886 566.873L422.121 568.721C423.946 569.476 425.604 570.583 427.001 571.98L428.415 570.565ZM432.11 576.093C431.253 574.025 429.998 572.147 428.415 570.565L427.001 571.98C428.398 573.376 429.506 575.034 430.262 576.858L432.11 576.093ZM433.407 582.614C433.407 580.376 432.966 578.16 432.11 576.093L430.262 576.858C431.018 578.683 431.407 580.639 431.407 582.614H433.407ZM432.116 589.139C432.972 587.069 433.41 584.852 433.407 582.612L431.407 582.615C431.41 584.591 431.023 586.549 430.268 588.375L432.116 589.139ZM428.423 594.673C430.006 593.089 431.261 591.209 432.116 589.139L430.268 588.375C429.513 590.202 428.405 591.861 427.008 593.259L428.423 594.673ZM422.89 598.369C424.96 597.513 426.839 596.257 428.423 594.673L427.008 593.259C425.611 594.657 423.952 595.765 422.126 596.521L422.89 598.369ZM416.364 599.663C418.603 599.665 420.821 599.225 422.89 598.369L422.126 596.521C420.299 597.277 418.342 597.665 416.366 597.663L416.364 599.663ZM302.551 599.705L416.365 599.663L416.365 597.663L302.55 597.705L302.551 599.705ZM302.543 599.705H302.55V597.705H302.543V599.705Z" fill="#0A047A"/>
<path fill-rule="evenodd" clip-rule="evenodd" d="M302.515 300.305L302.572 448.661L355.088 418.34C352.448 412.913 350.981 406.093 350.981 398.049C350.981 366.798 373.124 328.443 400.188 312.81C427.253 297.177 449.396 309.986 449.396 341.216C449.396 349.261 447.926 357.781 445.282 366.264L494.706 337.728L495.035 337.918L495.03 189.138L302.515 300.305Z" fill="#FF80ED" stroke="#0A047A" stroke-width="2" stroke-linecap="round" stroke-linejoin="round"/>
</g>
<defs>
<linearGradient id="paint0_linear" x1="359.39" y1="669.145" x2="554.546" y2="727.348" gradientUnits="userSpaceOnUse">
<stop offset="0.18" stop-color="#0B047F"/>
<stop offset="0.26" stop-color="#0D128F"/>
<stop offset="0.54" stop-color="#1348CB"/>
<stop offset="0.75" stop-color="#1769F1"/>
<stop offset="0.86" stop-color="#1876FF"/>
</linearGradient>
<linearGradient id="paint1_linear" x1="395.408" y1="379.076" x2="660.46" y2="537.706" gradientUnits="userSpaceOnUse">
<stop stop-color="#1876FF"/>
<stop offset="0.04" stop-color="#2676FE"/>
<stop offset="0.31" stop-color="#7276FA"/>
<stop offset="0.55" stop-color="#AE77F7"/>
<stop offset="0.75" stop-color="#DA77F4"/>
<stop offset="0.91" stop-color="#F577F3"/>
<stop offset="1" stop-color="#FF77F2"/>
</linearGradient>
<linearGradient id="paint2_linear" x1="439.977" y1="368.082" x2="253.548" y2="601" gradientUnits="userSpaceOnUse">
<stop offset="0.5" stop-color="#0B047F"/>
<stop offset="0.57" stop-color="#0C0C88"/>
<stop offset="0.69" stop-color="#0F23A2"/>
<stop offset="0.84" stop-color="#1348CB"/>
<stop offset="1" stop-color="#1876FF"/>
</linearGradient>
<clipPath id="clip0">
<rect width="710" height="710" fill="white"/>
</clipPath>
</defs>
</svg>
