<svg width="2190" height="2820" viewBox="0 0 2190 2820" fill="none" xmlns="http://www.w3.org/2000/svg">
<g clip-path="url(#clip0)">
<path d="M784.331 2096.53L995.07 1974.85L878.035 1907.29" stroke="#3874FF" stroke-width="2" stroke-linecap="round" stroke-linejoin="round"/>
<path d="M1346.27 2447.99L1556.98 2569.65L1123.83 2819.72L678.988 2562.88L889.687 2441.23" stroke="#3874FF" stroke-width="2" stroke-linecap="round" stroke-linejoin="round" stroke-dasharray="4 4"/>
<path d="M1463.34 1785.61L1381.38 1832.93L1498.45 1900.52L1404.79 1954.58L1532.47 2029.58L1216.36 2212.07" stroke="#3874FF" stroke-width="2" stroke-linecap="round" stroke-linejoin="round"/>
<path d="M1123.84 2130.31L1357.97 2265.47L1123.84 2400.67L889.702 2265.47L1123.84 2130.31Z" fill="#3874FF" stroke="#3874FF" stroke-width="2" stroke-linecap="round" stroke-linejoin="round"/>
<path d="M1182.37 2299.28C1214.56 2280.69 1214.56 2250.28 1182.37 2231.69C1150.18 2213.11 1097.5 2213.11 1065.31 2231.69C1033.11 2250.28 1033.12 2280.69 1065.31 2299.28C1097.5 2317.87 1150.18 2317.87 1182.37 2299.28Z" fill="#0A047A"/>
<path d="M1182.37 2299.28C1214.56 2280.69 1214.56 2250.28 1182.37 2231.69C1150.18 2213.11 1097.5 2213.11 1065.31 2231.69C1033.11 2250.28 1033.12 2280.69 1065.31 2299.28C1097.5 2317.87 1150.18 2317.87 1182.37 2299.28Z" stroke="#3874FF" stroke-width="2" stroke-linecap="round" stroke-linejoin="round"/>
<path d="M1123.84 2400.68V2684.83L889.703 2549.63L889.711 2265.47L1123.84 2400.68Z" fill="#FEC810" stroke="#3874FF" stroke-width="2" stroke-linecap="round" stroke-linejoin="round"/>
<path d="M1123.84 2400.68V2684.85L1357.97 2549.65L1357.97 2265.47L1123.84 2400.68Z" fill="#0A047A" stroke="#3874FF" stroke-width="2" stroke-linecap="round" stroke-linejoin="round"/>
<path d="M1141.39 2647.37C1144.61 2645.51 1147.25 2647.03 1147.25 2650.75C1147.13 2652.78 1146.54 2654.76 1145.53 2656.52C1144.51 2658.28 1143.09 2659.78 1141.39 2660.89C1138.17 2662.75 1135.53 2661.23 1135.53 2657.51C1135.65 2655.48 1136.24 2653.51 1137.26 2651.75C1138.27 2649.98 1139.69 2648.49 1141.39 2647.37V2647.37Z" stroke="#3874FF" stroke-width="2" stroke-linecap="round" stroke-linejoin="round"/>
<path d="M1340.41 2532.47C1343.63 2530.61 1346.27 2532.13 1346.27 2535.85C1346.16 2537.88 1345.57 2539.86 1344.55 2541.62C1343.53 2543.38 1342.12 2544.88 1340.41 2545.99C1337.19 2547.85 1334.56 2546.33 1334.56 2542.61C1334.67 2540.58 1335.26 2538.61 1336.28 2536.84C1337.3 2535.08 1338.71 2533.58 1340.41 2532.47V2532.47Z" stroke="#3874FF" stroke-width="2" stroke-linecap="round" stroke-linejoin="round"/>
<path d="M1141.39 2404.05C1144.61 2402.19 1147.25 2403.71 1147.25 2407.43C1147.13 2409.46 1146.54 2411.44 1145.53 2413.2C1144.51 2414.96 1143.09 2416.46 1141.39 2417.57C1138.17 2419.43 1135.53 2417.91 1135.53 2414.19C1135.65 2412.16 1136.24 2410.19 1137.26 2408.43C1138.27 2406.66 1139.69 2405.17 1141.39 2404.05V2404.05Z" stroke="#3874FF" stroke-width="2" stroke-linecap="round" stroke-linejoin="round"/>
<path d="M927.907 2380.4L931.681 2387.49L1029.55 2572.15L1036.04 2584.38L1062.2 2569.64C1078.43 2561.69 1088.62 2542.84 1088.62 2515.52C1088.62 2463.55 1051.79 2399.75 1006.78 2373.76C983.884 2360.52 963.103 2359.54 948.235 2368.57L947.958 2368.75L927.907 2380.4Z" fill="#0A047A" stroke="#3874FF" stroke-width="2" stroke-linecap="round" stroke-linejoin="round"/>
<path d="M1065.2 2529.04C1065.2 2477.06 1028.37 2413.27 983.352 2387.27C938.338 2361.28 901.507 2382.54 901.506 2434.52C901.504 2486.5 938.334 2550.3 983.349 2576.29C1028.36 2602.28 1065.2 2581.02 1065.2 2529.04Z" fill="#FF80ED" stroke="#3874FF" stroke-width="2" stroke-linecap="round" stroke-linejoin="round"/>
<path d="M1077.02 640.688C1069.56 640.679 1062.16 641.868 1055.08 644.21L1145.8 696.589C1142.5 680.787 1133.86 666.603 1121.34 656.422C1108.81 646.242 1093.16 640.685 1077.02 640.688Z" fill="#3874FF" stroke="#3874FF" stroke-width="2" stroke-linecap="round" stroke-linejoin="round"/>
<path d="M2025.25 1677.46L1276.01 1244.9L1276.01 1447.67L550.174 1028.64V893.459L760.921 771.774L1006.75 913.726L1006.78 562.247L1439.92 311.752L2025.39 650.112L2025.25 1677.46Z" fill="url(#paint0_linear)"/>
<path d="M1650.48 569.117L1544.77 508.081V562.247L1650.48 622.989V569.117Z" fill="#EFEEEA" stroke="#3874FF" stroke-width="2" stroke-linecap="round" stroke-linejoin="round"/>
<path d="M1650.48 569.118L1872.91 440.499L1767.54 379.669L1544.77 508.082L1650.48 569.118Z" fill="#3874FF" stroke="#3874FF" stroke-width="2" stroke-linecap="round" stroke-linejoin="round"/>
<path d="M1872.91 440.5V495.13L1650.48 622.989V569.118L1872.91 440.5Z" fill="#FF80ED" stroke="#3874FF" stroke-width="2" stroke-linecap="round" stroke-linejoin="round"/>
<path d="M1756.18 684.108L1650.47 623.072V677.237L1756.18 737.979V684.108Z" fill="#0A047A" stroke="#3874FF" stroke-width="2" stroke-linecap="round" stroke-linejoin="round"/>
<path d="M1756.18 684.108L1978.61 555.487L1873.25 494.66L1650.48 623.072L1756.18 684.108Z" fill="url(#paint1_linear)" stroke="#3874FF" stroke-width="2" stroke-linecap="round" stroke-linejoin="round"/>
<path d="M1978.61 555.487V610.121L1756.18 737.979V684.108L1978.61 555.487Z" fill="#3874FF" stroke="#3874FF" stroke-width="2" stroke-linecap="round" stroke-linejoin="round"/>
<path d="M1861.88 799.096L1756.18 738.06V792.225L1861.88 852.967V799.096Z" fill="#FF80ED" stroke="#3874FF" stroke-width="2" stroke-linecap="round" stroke-linejoin="round"/>
<path d="M1861.87 799.096L2084.3 670.477L1978.94 609.648L1756.17 738.06L1861.87 799.096Z" fill="#EFEEEA" stroke="#3874FF" stroke-width="2" stroke-linecap="round" stroke-linejoin="round"/>
<path d="M2084.3 670.477V725.108L1861.87 852.966V799.095L2084.3 670.477Z" fill="#0A047A" stroke="#3874FF" stroke-width="2" stroke-linecap="round" stroke-linejoin="round"/>
<path d="M1264.32 2116.8C1197.13 2116.8 1142.66 2062.33 1142.66 1995.14C1142.66 1927.95 1197.13 1873.48 1264.32 1873.48C1331.52 1873.48 1385.98 1927.95 1385.98 1995.14C1385.98 2062.33 1331.52 2116.8 1264.32 2116.8Z" fill="#FEC810" stroke="#3874FF" stroke-width="2" stroke-linecap="round" stroke-linejoin="round"/>
<path d="M409.697 1109.7V1435.87L752.301 1633.68L751.8 1307.22L409.697 1109.7Z" fill="#FF80ED" stroke="#3874FF" stroke-width="2" stroke-linecap="round" stroke-linejoin="round"/>
<path d="M1495.9 731.232H751.8" stroke="#3874FF" stroke-width="2" stroke-linecap="round" stroke-linejoin="round"/>
<path d="M751.8 731.232V1463.51C751.8 1518.63 788.003 1573.78 860.433 1615.59C1005.32 1699.24 1242.38 1699.24 1387.24 1615.59C1459.7 1573.75 1495.9 1518.63 1495.9 1463.51V731.232H751.8Z" fill="url(#paint2_linear)" stroke="#3874FF" stroke-width="2" stroke-linecap="round" stroke-linejoin="round"/>
<path d="M751.8 731.233C751.8 786.354 788.003 841.501 860.433 883.314C1005.32 966.965 1242.38 966.965 1387.24 883.314C1459.7 841.476 1495.9 786.354 1495.9 731.233C1495.9 676.111 1459.7 620.965 1387.27 579.152C1329.41 545.717 1256.82 525.665 1181.27 518.948C1143.06 515.577 1104.62 515.577 1066.4 518.948C1009.07 524.055 953.418 536.861 904.611 557.365L904.837 557.491L907.227 558.874L1055.08 644.211L1145.8 696.59L1305.28 788.669C1327.82 801.675 1325.18 824.494 1299.44 839.362C1273.68 854.231 1234.18 855.765 1211.64 842.759C1206.08 839.538 1171.11 819.362 1141.6 802.33L1136.72 799.512C1135.91 799.059 1135.13 798.581 1134.33 798.128L1129.7 795.461C1112.24 785.373 1098.96 777.7 1098.96 777.7C1098.96 777.7 825.513 619.229 815.551 614.071L813.085 612.662C772.229 648.412 751.8 689.823 751.8 731.233Z" fill="url(#paint3_linear)" stroke="#3874FF" stroke-width="2" stroke-linecap="round" stroke-linejoin="round"/>
<path d="M1211.64 842.758C1234.18 855.765 1273.68 854.23 1299.44 839.362C1325.18 824.494 1327.82 801.675 1305.28 788.668L904.612 557.364C904.612 557.364 920.997 614.071 865.73 642.778L1211.64 842.758Z" fill="#0A047A" stroke="#3874FF" stroke-width="2" stroke-linecap="round" stroke-linejoin="round"/>
<path d="M752.3 732.032C752.3 787.117 788.478 842.226 860.86 884.011C1005.65 967.605 1242.55 967.605 1387.32 884.011C1459.72 842.201 1495.9 787.117 1495.9 732.032" stroke="#3874FF" stroke-width="2" stroke-linecap="round" stroke-linejoin="round"/>
<path d="M751.8 806.114C751.8 861.236 788.003 916.382 860.433 958.195C1005.32 1041.85 1242.38 1041.85 1387.24 958.195C1459.7 916.357 1495.9 861.236 1495.9 806.114" stroke="#3874FF" stroke-width="2" stroke-linecap="round" stroke-linejoin="round"/>
<path d="M751.8 880.519C751.8 935.641 788.003 990.787 860.433 1032.6C1005.32 1116.25 1242.38 1116.25 1387.24 1032.6C1459.7 990.762 1495.9 935.641 1495.9 880.519" stroke="#3874FF" stroke-width="2" stroke-linecap="round" stroke-linejoin="round"/>
<path d="M751.8 954.925C751.8 1010.05 788.003 1065.19 860.433 1107.01C1005.32 1190.66 1242.38 1190.66 1387.24 1107.01C1459.7 1065.17 1495.9 1010.05 1495.9 954.925" stroke="#3874FF" stroke-width="2" stroke-linecap="round" stroke-linejoin="round"/>
<path d="M751.8 1029.33C751.8 1084.45 788.003 1139.6 860.433 1181.41C1005.32 1265.06 1242.38 1265.06 1387.24 1181.41C1459.7 1139.57 1495.9 1084.45 1495.9 1029.33" stroke="#3874FF" stroke-width="2" stroke-linecap="round" stroke-linejoin="round"/>
<path d="M751.8 1103.74C751.8 1158.86 788.003 1214 860.433 1255.82C1005.32 1339.47 1242.38 1339.47 1387.24 1255.82C1459.7 1213.98 1495.9 1158.86 1495.9 1103.74" stroke="#3874FF" stroke-width="2" stroke-linecap="round" stroke-linejoin="round"/>
<path d="M751.8 1178.14C751.8 1233.26 788.003 1288.41 860.433 1330.22C1005.32 1413.87 1242.38 1413.87 1387.24 1330.22C1459.7 1288.38 1495.9 1233.26 1495.9 1178.14" stroke="#3874FF" stroke-width="2" stroke-linecap="round" stroke-linejoin="round"/>
<path d="M751.8 1252.54C751.8 1307.67 788.003 1362.81 860.433 1404.63C1005.32 1488.28 1242.38 1488.28 1387.24 1404.63C1459.7 1362.79 1495.9 1307.67 1495.9 1252.54" stroke="#3874FF" stroke-width="2" stroke-linecap="round" stroke-linejoin="round"/>
<path d="M751.8 1326.95C751.8 1382.07 788.003 1437.22 860.433 1479.03C1005.32 1562.68 1242.38 1562.68 1387.24 1479.03C1459.7 1437.19 1495.9 1382.07 1495.9 1326.95" stroke="#3874FF" stroke-width="2" stroke-linecap="round" stroke-linejoin="round"/>
<path d="M751.8 1401.35C751.8 1456.48 788.003 1511.62 860.433 1553.44C1005.32 1637.09 1242.38 1637.09 1387.24 1553.44C1459.7 1511.6 1495.9 1456.48 1495.9 1401.35" stroke="#3874FF" stroke-width="2" stroke-linecap="round" stroke-linejoin="round"/>
<path d="M1732.58 1359.82L1580.39 1271.95L667.268 1799.13L819.472 1886.99L1732.58 1359.82Z" fill="#0A047A" stroke="#3874FF" stroke-width="2" stroke-linecap="round" stroke-linejoin="round"/>
<path d="M1732.58 1359.82L1732.62 1427.39L819.47 1954.58L819.473 1886.99L1732.58 1359.82Z" fill="#FF80ED" stroke="#3874FF" stroke-width="2" stroke-linecap="round" stroke-linejoin="round"/>
<path d="M819.47 1954.58L667.281 1866.72L667.268 1799.13L819.473 1886.99L819.47 1954.58Z" fill="#FEC810" stroke="#3874FF" stroke-width="2" stroke-linecap="round" stroke-linejoin="round"/>
<path d="M409.714 1339.14L608.758 1454.05L409.714 1568.97L210.705 1454.05L409.714 1339.14Z" fill="url(#paint4_linear)" stroke="#3874FF" stroke-width="2" stroke-linecap="round" stroke-linejoin="round"/>
<path d="M409.712 1568.96V1812.65L608.723 1697.75V1454.05L409.712 1568.96Z" fill="#3874FF" stroke="#3874FF" stroke-width="2" stroke-linecap="round" stroke-linejoin="round"/>
<path d="M409.711 1568.96V1812.65L210.702 1697.75V1454.05L409.711 1568.96Z" fill="#FEC810" stroke="#3874FF" stroke-width="2" stroke-linecap="round" stroke-linejoin="round"/>
<path d="M245.816 1636.9V1718.01L374.5 1792.3V1711.27C374.016 1690.72 369.108 1670.52 360.11 1652.04C348.31 1626.86 330.272 1604.65 310.146 1593.02C274.773 1572.55 245.816 1592.29 245.816 1636.9Z" fill="#EFEEEA" stroke="#3874FF" stroke-width="2" stroke-linecap="round" stroke-linejoin="round"/>
<path d="M269.215 1704.51V1587.98" stroke="#3874FF" stroke-width="2" stroke-linecap="round" stroke-linejoin="round"/>
<path d="M293.004 1690.79V1586.22" stroke="#3874FF" stroke-width="2" stroke-linecap="round" stroke-linejoin="round"/>
<path d="M316.066 1677.47V1597.18" stroke="#3874FF" stroke-width="2" stroke-linecap="round" stroke-linejoin="round"/>
<path d="M245.816 1718.01L374.5 1792.3V1711.27C374.016 1690.72 369.108 1670.52 360.11 1652.04L245.816 1718.01Z" fill="url(#paint5_linear)" stroke="#3874FF" stroke-width="2" stroke-linecap="round" stroke-linejoin="round"/>
<path d="M210.703 1454.05L234.133 1467.94V1494.98L210.703 1481.46V1454.05Z" fill="#FF80ED" stroke="#3874FF" stroke-width="2" stroke-linecap="round" stroke-linejoin="round"/>
<path d="M339.492 1663.95V1618.95" stroke="#3874FF" stroke-width="2" stroke-linecap="round" stroke-linejoin="round"/>
<path d="M409.712 1434.15L561.902 1346.29L1346.27 1799.13L1194.07 1886.99L409.712 1434.15Z" fill="#FEC810" stroke="#3874FF" stroke-width="2" stroke-linecap="round" stroke-linejoin="round"/>
<path d="M409.711 1434.15V1501.75L1194.07 1954.58L1194.06 1886.99L409.711 1434.15Z" fill="#EFEEEA" stroke="#3874FF" stroke-width="2" stroke-linecap="round" stroke-linejoin="round"/>
<path d="M1194.07 1954.58L1346.26 1866.72L1346.27 1799.13L1194.07 1886.99L1194.07 1954.58Z" fill="#0A047A" stroke="#3874FF" stroke-width="2" stroke-linecap="round" stroke-linejoin="round"/>
<path d="M1322.86 1785.61L1170.67 1873.49" stroke="#3874FF" stroke-width="2" stroke-linecap="round" stroke-linejoin="round"/>
<path d="M1301.17 1773.08L1148.98 1860.96" stroke="#3874FF" stroke-width="2" stroke-linecap="round" stroke-linejoin="round"/>
<path d="M1279.48 1760.56L1127.29 1848.44" stroke="#3874FF" stroke-width="2" stroke-linecap="round" stroke-linejoin="round"/>
<path d="M1257.79 1748.04L1105.6 1835.91" stroke="#3874FF" stroke-width="2" stroke-linecap="round" stroke-linejoin="round"/>
<path d="M1236.09 1735.51L1083.9 1823.39" stroke="#3874FF" stroke-width="2" stroke-linecap="round" stroke-linejoin="round"/>
<path d="M1214.41 1722.99L1062.21 1810.86" stroke="#3874FF" stroke-width="2" stroke-linecap="round" stroke-linejoin="round"/>
<path d="M1192.71 1710.46L1040.51 1798.34" stroke="#3874FF" stroke-width="2" stroke-linecap="round" stroke-linejoin="round"/>
<path d="M1171.02 1697.94L1018.82 1785.82" stroke="#3874FF" stroke-width="2" stroke-linecap="round" stroke-linejoin="round"/>
<path d="M1149.33 1685.42L997.128 1773.29" stroke="#3874FF" stroke-width="2" stroke-linecap="round" stroke-linejoin="round"/>
<path d="M1127.64 1672.89L975.439 1760.77" stroke="#3874FF" stroke-width="2" stroke-linecap="round" stroke-linejoin="round"/>
<path d="M1105.95 1660.37L953.743 1748.24" stroke="#3874FF" stroke-width="2" stroke-linecap="round" stroke-linejoin="round"/>
<path d="M1084.25 1647.85L932.05 1735.72" stroke="#3874FF" stroke-width="2" stroke-linecap="round" stroke-linejoin="round"/>
<path d="M1062.56 1635.32L910.357 1723.2" stroke="#3874FF" stroke-width="2" stroke-linecap="round" stroke-linejoin="round"/>
<path d="M1040.87 1622.8L888.664 1710.67" stroke="#3874FF" stroke-width="2" stroke-linecap="round" stroke-linejoin="round"/>
<path d="M1019.18 1610.27L866.972 1698.15" stroke="#3874FF" stroke-width="2" stroke-linecap="round" stroke-linejoin="round"/>
<path d="M997.484 1597.75L845.275 1685.62" stroke="#3874FF" stroke-width="2" stroke-linecap="round" stroke-linejoin="round"/>
<path d="M975.797 1585.23L823.587 1673.1" stroke="#3874FF" stroke-width="2" stroke-linecap="round" stroke-linejoin="round"/>
<path d="M954.102 1572.7L801.89 1660.57" stroke="#3874FF" stroke-width="2" stroke-linecap="round" stroke-linejoin="round"/>
<path d="M932.414 1560.18L780.201 1648.05" stroke="#3874FF" stroke-width="2" stroke-linecap="round" stroke-linejoin="round"/>
<path d="M910.719 1547.65L758.505 1635.53" stroke="#3874FF" stroke-width="2" stroke-linecap="round" stroke-linejoin="round"/>
<path d="M889.031 1535.13L736.816 1623" stroke="#3874FF" stroke-width="2" stroke-linecap="round" stroke-linejoin="round"/>
<path d="M867.336 1522.61L715.119 1610.48" stroke="#3874FF" stroke-width="2" stroke-linecap="round" stroke-linejoin="round"/>
<path d="M845.645 1510.08L693.426 1597.95" stroke="#3874FF" stroke-width="2" stroke-linecap="round" stroke-linejoin="round"/>
<path d="M823.953 1497.56L671.734 1585.43" stroke="#3874FF" stroke-width="2" stroke-linecap="round" stroke-linejoin="round"/>
<path d="M802.262 1485.04L650.041 1572.91" stroke="#3874FF" stroke-width="2" stroke-linecap="round" stroke-linejoin="round"/>
<path d="M780.57 1472.51L628.348 1560.38" stroke="#3874FF" stroke-width="2" stroke-linecap="round" stroke-linejoin="round"/>
<path d="M758.879 1459.99L606.656 1547.85" stroke="#3874FF" stroke-width="2" stroke-linecap="round" stroke-linejoin="round"/>
<path d="M737.188 1447.46L584.964 1535.33" stroke="#3874FF" stroke-width="2" stroke-linecap="round" stroke-linejoin="round"/>
<path d="M715.496 1434.94L563.27 1522.81" stroke="#3874FF" stroke-width="2" stroke-linecap="round" stroke-linejoin="round"/>
<path d="M693.805 1422.42L541.578 1510.28" stroke="#3874FF" stroke-width="2" stroke-linecap="round" stroke-linejoin="round"/>
<path d="M672.109 1409.89L519.882 1497.76" stroke="#3874FF" stroke-width="2" stroke-linecap="round" stroke-linejoin="round"/>
<path d="M650.422 1397.37L498.193 1485.23" stroke="#3874FF" stroke-width="2" stroke-linecap="round" stroke-linejoin="round"/>
<path d="M628.727 1384.84L476.496 1472.71" stroke="#3874FF" stroke-width="2" stroke-linecap="round" stroke-linejoin="round"/>
<path d="M607.039 1372.32L454.807 1460.19" stroke="#3874FF" stroke-width="2" stroke-linecap="round" stroke-linejoin="round"/>
<path d="M585.344 1359.8L433.111 1447.66" stroke="#3874FF" stroke-width="2" stroke-linecap="round" stroke-linejoin="round"/>
<path d="M1428.2 1457.08C1389.41 1457.08 1357.96 1425.63 1357.96 1386.84C1357.96 1348.05 1389.41 1316.6 1428.2 1316.6C1467 1316.6 1498.45 1348.05 1498.45 1386.84C1498.45 1425.63 1467 1457.08 1428.2 1457.08Z" fill="url(#paint6_linear)" stroke="#3874FF" stroke-width="2" stroke-linecap="round" stroke-linejoin="round"/>
<path d="M1240.9 1565.22C1202.11 1565.22 1170.66 1533.77 1170.66 1494.97C1170.66 1456.18 1202.11 1424.73 1240.9 1424.73C1279.69 1424.73 1311.14 1456.18 1311.14 1494.97C1311.14 1533.77 1279.69 1565.22 1240.9 1565.22Z" fill="#FF80ED" stroke="#3874FF" stroke-width="2" stroke-linecap="round" stroke-linejoin="round"/>
<path d="M87.7944 2295.91C123.202 2275.46 181.142 2275.46 216.55 2295.91C251.957 2316.35 251.957 2349.81 216.55 2370.25C181.142 2390.7 123.202 2390.7 87.7944 2370.25C52.3866 2349.8 52.3868 2316.35 87.7944 2295.91Z" fill="#FF80ED" stroke="#3874FF" stroke-width="2" stroke-linecap="round" stroke-linejoin="round"/>
<path d="M146.329 2236.62C107.536 2236.62 76.0883 2205.17 76.0883 2166.38C76.0883 2127.59 107.536 2096.14 146.329 2096.14C185.122 2096.14 216.57 2127.59 216.57 2166.38C216.57 2205.17 185.122 2236.62 146.329 2236.62Z" fill="#3874FF" stroke="#3874FF" stroke-width="2" stroke-linecap="round" stroke-linejoin="round"/>
<path d="M409.7 1109.71L751.801 1307.23V912.22L409.7 1109.71Z" fill="url(#paint7_linear)" stroke="#3874FF" stroke-width="2" stroke-linecap="round" stroke-linejoin="round"/>
<path d="M421.473 1008.36L421.512 852.945C421.513 846.771 423.138 840.705 426.222 835.357C429.307 830.009 433.743 825.565 439.087 822.472L468.27 805.576L550.176 852.866L503.42 988.075L503.378 1055.65L421.473 1008.36Z" fill="#FEC810" stroke="#3874FF" stroke-width="2" stroke-linecap="round" stroke-linejoin="round"/>
<path d="M550.176 1028.64V852.866L520.992 869.761C515.649 872.854 511.213 877.298 508.128 882.646C505.043 887.995 503.419 894.06 503.417 900.234L503.379 1055.65" fill="#3874FF"/>
<path d="M550.176 1028.64V852.866L520.992 869.761C515.649 872.854 511.213 877.298 508.128 882.646C505.043 887.995 503.419 894.06 503.417 900.234L503.379 1055.65" stroke="#3874FF" stroke-width="2" stroke-linecap="round" stroke-linejoin="round"/>
<path d="M374.641 1035.39L374.679 879.976C374.681 873.802 376.305 867.737 379.39 862.389C382.474 857.04 386.911 852.596 392.254 849.503L421.438 832.608L503.344 879.897L456.588 1015.11L456.545 1082.68L374.641 1035.39Z" fill="#FF80ED" stroke="#3874FF" stroke-width="2" stroke-linecap="round" stroke-linejoin="round"/>
<path d="M503.344 1055.67V879.897L474.16 896.793C468.817 899.886 464.381 904.33 461.296 909.678C458.211 915.027 456.587 921.092 456.585 927.266L456.547 1082.68" fill="#0A047A"/>
<path d="M503.344 1055.67V879.897L474.16 896.793C468.817 899.886 464.381 904.33 461.296 909.678C458.211 915.027 456.587 921.092 456.585 927.266L456.547 1082.68" stroke="#3874FF" stroke-width="2" stroke-linecap="round" stroke-linejoin="round"/>
<path d="M327.789 1386.84L327.828 906.999C327.83 900.825 329.454 894.76 332.539 889.411C335.624 884.063 340.06 879.619 345.403 876.526L374.587 859.631L456.492 906.92L409.736 1042.13L409.694 1339.92L327.789 1386.84Z" fill="#EFEEEA" stroke="#3874FF" stroke-width="2" stroke-linecap="round" stroke-linejoin="round"/>
<path d="M456.496 1082.69V906.92L427.313 923.816C421.969 926.909 417.533 931.353 414.448 936.701C411.364 942.049 409.739 948.115 409.738 954.289L409.699 1109.7" fill="#FEC810"/>
<path d="M456.496 1082.69V906.92L427.313 923.816C421.969 926.909 417.533 931.353 414.448 936.701C411.364 942.049 409.739 948.115 409.738 954.289L409.699 1109.7" stroke="#3874FF" stroke-width="2" stroke-linecap="round" stroke-linejoin="round"/>
<path d="M409.711 1920.62V2164.29L210.702 2049.4V1805.7L409.711 1920.62Z" fill="#FEC810" stroke="#3874FF" stroke-width="2" stroke-linecap="round" stroke-linejoin="round"/>
<path d="M93.6602 734.525L58.5217 714.26V754.812L93.6602 775.092V734.525Z" fill="#FEC810" stroke="#3874FF" stroke-width="2" stroke-linecap="round" stroke-linejoin="round"/>
<path d="M245.855 673.714L105.364 592.6" stroke="#3874FF" stroke-width="2" stroke-linecap="round" stroke-linejoin="round"/>
<path d="M386.307 525L58.5238 714.26L93.6623 734.525L421.473 545.303L386.307 525Z" fill="#FF80ED" stroke="#3874FF" stroke-width="2" stroke-linecap="round" stroke-linejoin="round"/>
<path d="M421.473 545.302V585.829L93.6622 775.091V734.524L421.473 545.302Z" fill="#EFEEEA" stroke="#3874FF" stroke-width="2" stroke-linecap="round" stroke-linejoin="round"/>
<path d="M409.714 1690.79L608.758 1805.7L409.714 1920.62L210.705 1805.7L409.714 1690.79Z" fill="#EFEEEA" stroke="#3874FF" stroke-width="2" stroke-linecap="round" stroke-linejoin="round"/>
<path d="M409.712 1920.62V2164.29L608.723 2049.4V1805.7L409.712 1920.62Z" fill="#FF80ED" stroke="#3874FF" stroke-width="2" stroke-linecap="round" stroke-linejoin="round"/>
<path d="M374.492 1940.95L245.926 1866.71V2029.06L374.492 2103.29V1940.95Z" fill="url(#paint8_linear)" stroke="#3874FF" stroke-width="2" stroke-linecap="round" stroke-linejoin="round"/>
<path d="M409.698 2055.99L608.724 1941.05L807.793 2055.99H409.698Z" fill="url(#paint9_linear)" stroke="#3874FF" stroke-width="2" stroke-linecap="round" stroke-linejoin="round"/>
<path d="M409.713 2055.99H807.793V2164.3H409.713V2055.99Z" fill="#EFEEEA" stroke="#3874FF" stroke-width="2" stroke-linecap="round" stroke-linejoin="round"/>
<path d="M608.748 2089.8V2130.33L752.326 2130.35C757.697 2130.35 762.848 2128.22 766.645 2124.42C770.443 2120.62 772.577 2115.47 772.578 2110.1V2110.02C772.577 2107.37 772.053 2104.73 771.034 2102.28C770.016 2099.82 768.524 2097.59 766.643 2095.71C764.762 2093.84 762.53 2092.35 760.073 2091.33C757.616 2090.32 754.984 2089.79 752.326 2089.8H608.748Z" fill="#3874FF" stroke="#3874FF" stroke-width="2" stroke-linecap="round" stroke-linejoin="round"/>
<path d="M444.945 2110.02C444.942 2112.68 445.463 2115.31 446.478 2117.77C447.493 2120.23 448.982 2122.46 450.861 2124.34C452.739 2126.22 454.97 2127.72 457.426 2128.73C459.882 2129.75 462.514 2130.28 465.173 2130.28L608.75 2130.33V2089.8H465.173C459.808 2089.8 454.663 2091.93 450.87 2095.72C447.076 2099.51 444.945 2104.66 444.945 2110.02Z" fill="#FF80ED" stroke="#3874FF" stroke-width="2" stroke-linecap="round" stroke-linejoin="round"/>
<path d="M245.926 2029.07L374.492 1954.65V2103.29L245.926 2029.07Z" fill="#EFEEEA" stroke="#3874FF" stroke-width="2" stroke-linecap="round" stroke-linejoin="round"/>
<path d="M374.613 2076.25L269.237 2015.41" stroke="#3874FF" stroke-width="2" stroke-linecap="round" stroke-linejoin="round"/>
<path d="M292.656 2002.02L374.492 2049.28" stroke="#3874FF" stroke-width="2" stroke-linecap="round" stroke-linejoin="round"/>
<path d="M316.23 1988.37L374.492 2022.24" stroke="#3874FF" stroke-width="2" stroke-linecap="round" stroke-linejoin="round"/>
<path d="M339.585 1974.86L374.492 1995.21" stroke="#3874FF" stroke-width="2" stroke-linecap="round" stroke-linejoin="round"/>
<path d="M403.849 1903.91C405.665 1904.83 407.671 1905.3 409.706 1905.3C411.74 1905.3 413.746 1904.82 415.562 1903.91C418.788 1902.04 418.798 1899 415.584 1897.13C413.768 1896.22 411.761 1895.74 409.727 1895.74C407.692 1895.74 405.686 1896.22 403.871 1897.14C400.643 1899 400.633 1902.05 403.849 1903.91Z" stroke="#3874FF" stroke-width="2" stroke-linecap="round" stroke-linejoin="round"/>
<path d="M251.514 1809.17C249.708 1810.11 247.701 1810.6 245.664 1810.6C243.627 1810.6 241.62 1810.11 239.813 1809.17C236.51 1807.26 236.534 1804.21 239.867 1802.39C241.686 1801.49 243.687 1801.02 245.716 1801.02C247.746 1801.02 249.748 1801.49 251.567 1802.39C254.67 1804.21 254.646 1807.26 251.514 1809.17Z" stroke="#3874FF" stroke-width="2" stroke-linecap="round" stroke-linejoin="round"/>
<path d="M579.631 1809.17C577.825 1810.11 575.818 1810.6 573.781 1810.6C571.745 1810.6 569.738 1810.11 567.931 1809.17C564.628 1807.26 564.651 1804.21 567.984 1802.39C569.803 1801.49 571.804 1801.02 573.833 1801.02C575.863 1801.02 577.865 1801.49 579.684 1802.39C582.787 1804.21 582.764 1807.26 579.631 1809.17Z" stroke="#3874FF" stroke-width="2" stroke-linecap="round" stroke-linejoin="round"/>
<path d="M415.737 1714.58C413.931 1715.52 411.924 1716.01 409.887 1716.01C407.851 1716.01 405.844 1715.52 404.037 1714.58C400.733 1712.67 400.757 1709.62 404.089 1707.8C405.908 1706.9 407.91 1706.43 409.939 1706.43C411.968 1706.43 413.97 1706.9 415.79 1707.8C418.893 1709.62 418.868 1712.67 415.737 1714.58Z" stroke="#3874FF" stroke-width="2" stroke-linecap="round" stroke-linejoin="round"/>
<path d="M1123.84 2146.49C1085.05 2146.49 1053.6 2115.04 1053.6 2076.25C1053.6 2037.45 1085.05 2006.01 1123.84 2006.01C1162.63 2006.01 1194.08 2037.45 1194.08 2076.25C1194.08 2115.04 1162.63 2146.49 1123.84 2146.49Z" fill="#EFEEEA" stroke="#3874FF" stroke-width="2" stroke-linecap="round" stroke-linejoin="round"/>
<path d="M1411.01 1732.28C1414.82 1727.73 1419.23 1723.72 1424.14 1720.39C1426.09 1719.06 1428.17 1717.76 1430.35 1716.49C1449.13 1705.8 1473.8 1700.44 1498.46 1700.41C1523.12 1700.44 1547.79 1705.8 1566.57 1716.49C1568.75 1717.76 1570.83 1719.06 1572.78 1720.39C1577.69 1723.72 1582.11 1727.73 1585.91 1732.28H1595.04V1755.88C1594.93 1763.39 1592.49 1770.68 1588.05 1776.74C1582.45 1784.31 1575.27 1790.57 1567 1795.07C1548.18 1805.95 1523.32 1811.38 1498.46 1811.38C1473.6 1811.38 1448.74 1805.95 1429.93 1795.07C1421.66 1790.57 1414.47 1784.31 1408.87 1776.74C1404.44 1770.68 1402 1763.39 1401.88 1755.88V1732.28H1411.01Z" fill="#3874FF" stroke="#3874FF" stroke-width="2" stroke-linecap="round" stroke-linejoin="round"/>
<path d="M1430.35 1692.87C1435.97 1689.65 1447.64 1682.54 1454.17 1680.26C1454.23 1680.25 1454.28 1680.23 1454.33 1680.2C1468.47 1675.5 1483.34 1673.34 1498.23 1673.83H1498.69C1513.58 1673.34 1528.44 1675.5 1542.59 1680.2C1542.64 1680.23 1542.69 1680.25 1542.75 1680.26C1549.28 1682.54 1560.95 1689.65 1566.57 1692.87C1585.55 1703.69 1595.04 1717.99 1595.04 1732.29C1595.04 1746.46 1585.71 1760.66 1566.99 1771.44C1548.24 1782.27 1523.48 1787.69 1498.69 1787.72H1498.23C1473.44 1787.69 1448.67 1782.27 1429.92 1771.44C1411.21 1760.66 1401.88 1746.46 1401.88 1732.29C1401.88 1717.99 1411.37 1703.69 1430.35 1692.87Z" fill="#FEC810" stroke="#3874FF" stroke-width="2" stroke-linecap="round" stroke-linejoin="round"/>
<path d="M1445.65 1684.45C1448.41 1682.89 1451.25 1681.49 1454.17 1680.26C1454.22 1680.25 1454.28 1680.22 1454.33 1680.19C1482.73 1669.23 1514.19 1669.23 1542.59 1680.19C1542.64 1680.22 1542.69 1680.25 1542.75 1680.26C1545.67 1681.49 1548.51 1682.89 1551.26 1684.45C1568.36 1694.2 1575.54 1707.59 1572.78 1720.39C1570.83 1729.52 1563.74 1738.39 1551.62 1745.38C1537.03 1753.8 1517.73 1758.02 1498.46 1758.02C1479.19 1758.02 1459.89 1753.8 1445.3 1745.38C1433.17 1738.39 1426.09 1729.52 1424.14 1720.39C1421.38 1707.59 1428.56 1694.2 1445.65 1684.45Z" fill="#EFEEEA" stroke="#3874FF" stroke-width="2" stroke-linecap="round" stroke-linejoin="round"/>
<path d="M257.535 1778.86L456.566 1893.75V2028.97L479.963 2042.45L632.031 1954.65" stroke="#3874FF" stroke-width="2" stroke-linecap="round" stroke-linejoin="round"/>
<path d="M456.559 1140.14V1366.56L304.362 1454.43L257.545 1427.39" stroke="#3874FF" stroke-width="2" stroke-linecap="round" stroke-linejoin="round"/>
<path d="M280.605 1765.34L199.05 1718.05L222.463 1704.49" stroke="#3874FF" stroke-width="2" stroke-linecap="round" stroke-linejoin="round"/>
<path d="M2025.16 1096.25V1150.33" stroke="#3874FF" stroke-width="2" stroke-linecap="round" stroke-linejoin="round"/>
<path d="M2025.43 1249.54C1993.01 1249.54 1966.72 1223.25 1966.72 1190.82C1966.72 1158.4 1993.01 1132.11 2025.43 1132.11C2057.86 1132.11 2084.14 1158.4 2084.14 1190.82C2084.14 1223.25 2057.86 1249.54 2025.43 1249.54Z" fill="#FF80ED" stroke="#3874FF" stroke-width="2" stroke-linecap="round" stroke-linejoin="round"/>
<path d="M2025.16 1096.25L2107.11 1143.53L2025.43 1190.95L1943.59 1143.7L2025.16 1096.25Z" stroke="#3874FF" stroke-width="2" stroke-linecap="round" stroke-linejoin="round"/>
<path d="M2107.11 1143.53V1238.14L2025.43 1285.45L1943.75 1238.14V1143.53" stroke="#3874FF" stroke-width="2" stroke-linecap="round" stroke-linejoin="round"/>
<path d="M2025.43 1190.95V1285.45" stroke="#3874FF" stroke-width="2" stroke-linecap="round" stroke-linejoin="round"/>
<path d="M72.8641 250.36C24.5695 222.485 24.5657 176.87 72.8555 148.992C121.145 121.114 200.169 121.114 248.464 148.992C296.759 176.87 296.762 222.486 248.472 250.36C200.182 278.235 121.159 278.235 72.8641 250.36Z" stroke="#3874FF" stroke-width="2" stroke-linecap="round" stroke-linejoin="round"/>
<path d="M1937.25 1883.5C1985.55 1911.37 2056.76 1915.99 2095.5 1893.75C2134.24 1871.51 2126.43 1830.51 2078.14 1802.63C2029.85 1774.75 1958.64 1770.13 1919.89 1792.37C1881.15 1814.61 1888.96 1855.62 1937.25 1883.5Z" stroke="#3874FF" stroke-width="2" stroke-linecap="round" stroke-linejoin="round" stroke-dasharray="4 4"/>
<path d="M2072.09 1393.6L1849.63 1522.03V1684.23L2072.09 1555.8V1393.6Z" stroke="#3874FF" stroke-width="2" stroke-linecap="round" stroke-linejoin="round"/>
<path d="M1966.71 1535.54L2130.61 1630.15" stroke="#3874FF" stroke-width="2" stroke-linecap="round" stroke-linejoin="round" stroke-dasharray="4 4"/>
<path d="M327.738 1130.02L323.381 1132.54" stroke="#3874FF" stroke-width="2" stroke-linecap="round" stroke-linejoin="round"/>
<path d="M314.875 1137.45L149.072 1233.17" stroke="#3874FF" stroke-width="2" stroke-linecap="round" stroke-linejoin="round" stroke-dasharray="3.9 3.9"/>
<path d="M144.82 1235.62L140.463 1238.14V1243.17" stroke="#3874FF" stroke-width="2" stroke-linecap="round" stroke-linejoin="round"/>
<path d="M140.461 1252.91V1403.97" stroke="#3874FF" stroke-width="2" stroke-linecap="round" stroke-linejoin="round" stroke-dasharray="3.87 3.87"/>
<path d="M140.463 1408.85V1413.88L144.82 1411.36" stroke="#3874FF" stroke-width="2" stroke-linecap="round" stroke-linejoin="round"/>
<path d="M153.327 1406.45L319.188 1310.69" stroke="#3874FF" stroke-width="2" stroke-linecap="round" stroke-linejoin="round" stroke-dasharray="3.9 3.9"/>
<path d="M323.44 1308.23L327.797 1305.72" stroke="#3874FF" stroke-width="2" stroke-linecap="round" stroke-linejoin="round"/>
<path d="M269.25 1258.42L0.000466084 1413.88" stroke="#3874FF" stroke-width="2" stroke-linecap="round" stroke-linejoin="round"/>
<path d="M1135.56 1677.46L1709.14 1346.28" stroke="#3874FF" stroke-width="2" stroke-linecap="round" stroke-linejoin="round"/>
<path d="M702.386 1778.85L831.176 1853.2L923.977 1798.65" stroke="#3874FF" stroke-width="2" stroke-linecap="round" stroke-linejoin="round"/>
<path d="M561.883 535.226C561.883 617.015 619.847 650.45 690.692 609.568C761.512 568.661 819.477 468.28 819.477 386.491C819.477 304.727 761.512 271.267 690.692 312.174C669.197 325.027 649.969 341.339 633.784 360.452C602.707 396.347 580.331 438.929 568.398 484.884C564.21 501.342 562.022 518.244 561.883 535.226Z" fill="#0A047A" stroke="#3874FF" stroke-width="2" stroke-linecap="round" stroke-linejoin="round"/>
<path d="M597.361 2164.3L889.699 2333.06" stroke="#3874FF" stroke-width="2" stroke-linecap="round" stroke-linejoin="round"/>
<path d="M1276.04 2204.66L1767.72 2488.53L1732.58 2508.8L1240.87 2224.96L1276.04 2204.66Z" fill="url(#paint10_linear)" stroke="#3874FF" stroke-width="2" stroke-linecap="round" stroke-linejoin="round"/>
<path d="M1732.58 2508.8L1767.72 2488.53V2529.09L1732.58 2549.37V2508.8Z" fill="#FF80ED" stroke="#3874FF" stroke-width="2" stroke-linecap="round" stroke-linejoin="round"/>
<path d="M1240.87 2224.96V2265.49L1732.58 2549.37V2508.8L1240.87 2224.96Z" fill="#EFEEEA" stroke="#3874FF" stroke-width="2" stroke-linecap="round" stroke-linejoin="round"/>
<path d="M1556.96 2150.59L1229.21 2339.84L1264.34 2360.11L1592.13 2170.89L1556.96 2150.59Z" fill="#FEC810" stroke="#3874FF" stroke-width="2" stroke-linecap="round" stroke-linejoin="round"/>
<path d="M1264.34 2360.11L1229.21 2339.84V2380.39L1264.34 2400.67V2360.11Z" fill="#EFEEEA" stroke="#3874FF" stroke-width="2" stroke-linecap="round" stroke-linejoin="round"/>
<path d="M1592.13 2170.89V2211.42L1264.34 2400.67V2360.11L1592.13 2170.89Z" fill="#FF80ED" stroke="#3874FF" stroke-width="2" stroke-linecap="round" stroke-linejoin="round"/>
<path d="M1512.97 2339.84L1675.27 2246.12" stroke="#3874FF" stroke-width="2" stroke-linecap="round" stroke-linejoin="round"/>
<path d="M1966.71 765.021L2189.16 893.44" stroke="#3874FF" stroke-width="2" stroke-linecap="round" stroke-linejoin="round" stroke-dasharray="4 4"/>
<path d="M1650.65 1074.14V2142.5C1696.72 2154.43 1745.07 2154.43 1791.14 2142.5V1074.34C1745.05 1086.17 1696.71 1086.1 1650.65 1074.14Z" fill="url(#paint11_linear)" stroke="#3874FF" stroke-width="2" stroke-linecap="round" stroke-linejoin="round"/>
<path d="M1837.95 1988.41C1823.22 1980.1 1807.49 1973.74 1791.13 1969.46V2142.5C1807.49 2138.24 1823.23 2131.87 1837.95 2123.56C1902.33 2086.4 1902.33 2025.59 1837.95 1988.41Z" fill="#0A047A" stroke="#3874FF" stroke-width="2" stroke-linecap="round" stroke-linejoin="round"/>
<path d="M1720.89 1882.88C1682.09 1882.88 1650.65 1851.44 1650.65 1812.64C1650.65 1773.85 1682.09 1742.4 1720.89 1742.4C1759.68 1742.4 1791.13 1773.85 1791.13 1812.64C1791.13 1851.44 1759.68 1882.88 1720.89 1882.88Z" fill="#FEC810" stroke="#3874FF" stroke-width="2" stroke-linecap="round" stroke-linejoin="round"/>
<path d="M1603.83 2123.56C1618.55 2131.87 1634.29 2138.24 1650.65 2142.5V1969.46C1634.29 1973.74 1618.55 1980.1 1603.83 1988.41C1539.45 2025.59 1539.45 2086.4 1603.83 2123.56Z" fill="#0A047A" stroke="#3874FF" stroke-width="2" stroke-linecap="round" stroke-linejoin="round"/>
<path d="M1170.86 629.844L1129.69 606.077V558.544L1170.86 582.311V629.844Z" fill="#EFEEEA" stroke="#3874FF" stroke-width="2" stroke-linecap="round" stroke-linejoin="round"/>
<path d="M1170.85 582.31L1891.23 166.396L1850.06 142.614L1129.69 558.543L1170.85 582.31Z" fill="#FF80ED" stroke="#3874FF" stroke-width="2" stroke-linecap="round" stroke-linejoin="round"/>
<path d="M1891.23 166.396V213.93L1170.85 629.845V582.311L1891.23 166.396Z" fill="#0A047A" stroke="#3874FF" stroke-width="2" stroke-linecap="round" stroke-linejoin="round"/>
<path d="M1870.65 344.641L1911.81 320.875V273.341L1870.65 297.108V344.641Z" fill="#FEC810" stroke="#3874FF" stroke-width="2" stroke-linecap="round" stroke-linejoin="round"/>
<path d="M1870.65 297.107L1479.6 71.3282L1520.77 47.5437L1911.81 273.341L1870.65 297.107Z" fill="#3874FF" stroke="#3874FF" stroke-width="2" stroke-linecap="round" stroke-linejoin="round"/>
<path d="M1479.6 71.3285V118.862L1870.64 344.642V297.108L1479.6 71.3285Z" fill="#EFEEEA" stroke="#3874FF" stroke-width="2" stroke-linecap="round" stroke-linejoin="round"/>
<path d="M1561.93 213.917L1520.77 190.15V142.616L1561.93 166.383V213.917Z" fill="#EFEEEA" stroke="#3874FF" stroke-width="2" stroke-linecap="round" stroke-linejoin="round"/>
<path d="M1561.92 166.383L1808.92 23.7845L1767.75 0L1520.76 142.616L1561.92 166.383Z" fill="#FF80ED" stroke="#3874FF" stroke-width="2" stroke-linecap="round" stroke-linejoin="round"/>
<path d="M1808.92 23.7848V71.3186L1561.92 213.917V166.384L1808.92 23.7848Z" fill="#FEC810" stroke="#3874FF" stroke-width="2" stroke-linecap="round" stroke-linejoin="round"/>
<path d="M70.2518 802.119L245.855 903.501L210.717 923.768L35.0833 822.421L70.2518 802.119Z" fill="#0A047A" stroke="#3874FF" stroke-width="2" stroke-linecap="round" stroke-linejoin="round"/>
<path d="M210.717 923.768L245.855 903.501V944.053L210.717 964.336V923.768Z" fill="#FEC810" stroke="#3874FF" stroke-width="2" stroke-linecap="round" stroke-linejoin="round"/>
<path d="M35.085 822.421V862.948L210.719 964.335V923.768L35.085 822.421Z" fill="#FF80ED" stroke="#3874FF" stroke-width="2" stroke-linecap="round" stroke-linejoin="round"/>
<path d="M410.211 1069.12L457.07 1042.1L609.164 1130L562.481 1157.04L410.211 1069.12Z" fill="#FEC810" stroke="#3874FF" stroke-width="2" stroke-linecap="round" stroke-linejoin="round"/>
<path d="M457.5 1068.5C451.706 1071.88 449.501 1077.5 456.5 1082C479.334 1095.33 530.986 1124.68 538 1129C544.5 1133 555.5 1136 565.5 1129C568.123 1127.16 571.5 1121.22 563 1116.5C554.845 1111.97 505.834 1083.17 482 1069.5C474 1065 463.501 1065 457.5 1068.5Z" fill="#0A047A" stroke="#3874FF" stroke-width="2"/>
<path d="M457.07 1042.1L410.211 1069.12L562.481 1157.04L609.164 1130" stroke="#3874FF" stroke-width="2" stroke-linecap="round" stroke-linejoin="round"/>
<path d="M410.215 1069.12V1109.71L562.411 1197.55L562.484 1157.04L410.215 1069.12Z" fill="#3874FF" stroke="#3874FF" stroke-width="2" stroke-linecap="round" stroke-linejoin="round"/>
<path d="M609.223 1130.02V1170.58L562.446 1197.57V1157.02L609.223 1130.02Z" fill="#0A047A" stroke="#3874FF" stroke-width="2" stroke-linecap="round" stroke-linejoin="round"/>
</g>
<defs>
<linearGradient id="paint0_linear" x1="1372.78" y1="170.852" x2="1370.26" y2="2306.78" gradientUnits="userSpaceOnUse">
<stop stop-color="#0A047A"/>
<stop offset="1" stop-color="#3874FF"/>
</linearGradient>
<linearGradient id="paint1_linear" x1="1769.73" y1="511.074" x2="1845.59" y2="643.454" gradientUnits="userSpaceOnUse">
<stop stop-color="#3874FF"/>
<stop offset="0.2333" stop-color="#7378FA"/>
<stop offset="0.4973" stop-color="#AF7BF4"/>
<stop offset="0.7226" stop-color="#DA7EF0"/>
<stop offset="0.8972" stop-color="#F57FEE"/>
<stop offset="1" stop-color="#FF80ED"/>
</linearGradient>
<linearGradient id="paint2_linear" x1="636.002" y1="679" x2="1335.5" y2="1571.5" gradientUnits="userSpaceOnUse">
<stop stop-color="#EFEEEA"/>
<stop offset="1" stop-color="#3874FF"/>
</linearGradient>
<linearGradient id="paint3_linear" x1="1098.07" y1="400.747" x2="1158.38" y2="1173.88" gradientUnits="userSpaceOnUse">
<stop stop-color="#0A047A"/>
<stop offset="0.022" stop-color="#0B077E"/>
<stop offset="0.4744" stop-color="#2341C3"/>
<stop offset="0.8008" stop-color="#3266EE"/>
<stop offset="0.9663" stop-color="#3874FF"/>
</linearGradient>
<linearGradient id="paint4_linear" x1="-623589" y1="150774" x2="-632413" y2="122645" gradientUnits="userSpaceOnUse">
<stop offset="0.1668" stop-color="#FEC810"/>
<stop offset="1" stop-color="#FF80ED"/>
</linearGradient>
<linearGradient id="paint5_linear" x1="374.5" y1="1722.17" x2="245.816" y2="1722.17" gradientUnits="userSpaceOnUse">
<stop offset="0.2167" stop-color="#0A047A"/>
<stop offset="0.2858" stop-color="#12087E"/>
<stop offset="0.3928" stop-color="#281388"/>
<stop offset="0.5243" stop-color="#4B2599"/>
<stop offset="0.6753" stop-color="#7D3EB0"/>
<stop offset="0.8403" stop-color="#BC5ECD"/>
<stop offset="1" stop-color="#FF80ED"/>
</linearGradient>
<linearGradient id="paint6_linear" x1="-163547" y1="75740.1" x2="-175717" y2="86533" gradientUnits="userSpaceOnUse">
<stop offset="0.2028" stop-color="#FEC810"/>
<stop offset="0.2564" stop-color="#F2C31E"/>
<stop offset="0.358" stop-color="#D3B643"/>
<stop offset="0.497" stop-color="#A1A180"/>
<stop offset="0.6662" stop-color="#5D84D2"/>
<stop offset="0.7528" stop-color="#3874FF"/>
</linearGradient>
<linearGradient id="paint7_linear" x1="975.489" y1="1325.18" x2="461.436" y2="915.992" gradientUnits="userSpaceOnUse">
<stop offset="0.4475" stop-color="#0A047A"/>
<stop offset="0.4594" stop-color="#0B077E"/>
<stop offset="0.7022" stop-color="#2341C3"/>
<stop offset="0.8774" stop-color="#3266EE"/>
<stop offset="0.9663" stop-color="#3874FF"/>
</linearGradient>
<linearGradient id="paint8_linear" x1="-212668" y1="161968" x2="-203971" y2="209983" gradientUnits="userSpaceOnUse">
<stop offset="0.2167" stop-color="#0A047A"/>
<stop offset="0.2858" stop-color="#12087E"/>
<stop offset="0.3928" stop-color="#281388"/>
<stop offset="0.5243" stop-color="#4B2599"/>
<stop offset="0.6753" stop-color="#7D3EB0"/>
<stop offset="0.8403" stop-color="#BC5ECD"/>
<stop offset="1" stop-color="#FF80ED"/>
</linearGradient>
<linearGradient id="paint9_linear" x1="-634572" y1="86213" x2="-629741" y2="107118" gradientUnits="userSpaceOnUse">
<stop offset="0.2167" stop-color="#0A047A"/>
<stop offset="0.2858" stop-color="#12087E"/>
<stop offset="0.3928" stop-color="#281388"/>
<stop offset="0.5243" stop-color="#4B2599"/>
<stop offset="0.6753" stop-color="#7D3EB0"/>
<stop offset="0.8403" stop-color="#BC5ECD"/>
<stop offset="1" stop-color="#FF80ED"/>
</linearGradient>
<linearGradient id="paint10_linear" x1="-560097" y1="287752" x2="-670425" y2="287752" gradientUnits="userSpaceOnUse">
<stop stop-color="#FEC810"/>
<stop offset="1" stop-color="#FF80ED"/>
</linearGradient>
<linearGradient id="paint11_linear" x1="-150645" y1="951745" x2="-150645" y2="469448" gradientUnits="userSpaceOnUse">
<stop stop-color="#FEC810"/>
<stop offset="1" stop-color="#FF80ED"/>
</linearGradient>
<clipPath id="clip0">
<rect width="2189.16" height="2819.72" fill="white"/>
</clipPath>
</defs>
</svg>
