<?xml version="1.0" encoding="UTF-8" standalone="no"?>
<svg
   width="1162"
   height="744"
   viewBox="0 0 1162 744"
   fill="none"
   version="1.1"
   id="svg35"
   sodipodi:docname="footer-2.svg"
   inkscape:version="1.1 (c68e22c387, 2021-05-23)"
   xmlns:inkscape="http://www.inkscape.org/namespaces/inkscape"
   xmlns:sodipodi="http://sodipodi.sourceforge.net/DTD/sodipodi-0.dtd"
   xmlns="http://www.w3.org/2000/svg"
   xmlns:svg="http://www.w3.org/2000/svg">
  <sodipodi:namedview
     id="namedview37"
     pagecolor="#ffffff"
     bordercolor="#666666"
     borderopacity="1.0"
     inkscape:pageshadow="2"
     inkscape:pageopacity="0.0"
     inkscape:pagecheckerboard="0"
     showgrid="false"
     inkscape:zoom="0.33400538"
     inkscape:cx="226.04427"
     inkscape:cy="555.38028"
     inkscape:window-width="1366"
     inkscape:window-height="705"
     inkscape:window-x="-8"
     inkscape:window-y="-8"
     inkscape:window-maximized="1"
     inkscape:current-layer="svg35" />
  <g
     id="g235"
     transform="matrix(1.1568578,0,0,1.3011248,-380.45176,206.6539)">
    <path
       d="M 2.791015,638.631 1029.17,46.389597 c 6.72,-3.8771 16.01,-2.7822 26.17,3.0828 11.12,6.421603 21.67,17.621003 29.7,31.535303 8.04,13.9127 12.46,28.6493 12.46,41.4923 0,11.73 -3.7,20.324 -10.41,24.202 L 60.7319,738.929"
       fill="url(#paint0_linear)"
       id="path24"
       style="fill:url(#paint0_linear)" />
    <path
       d="M 2.79102,638.631 1029.17,46.3896 c 6.72,-3.8771 16.01,-2.7822 26.17,3.0828 11.12,6.4216 21.67,17.621 29.7,31.5353 8.04,13.9127 12.46,28.6493 12.46,41.4923 0,11.73 -3.7,20.324 -10.41,24.202 L 60.7319,738.929"
       stroke="#0a047a"
       stroke-width="2"
       stroke-linecap="round"
       stroke-linejoin="round"
       id="path26" />
  </g>
  <g
     clip-path="url(#clip0)"
     id="g176"
     transform="matrix(1.11826,0,0,1.3460414,-64.344928,11.922024)">
    <path
       d="M 1104.58,69.9397 838,223.849 790.435,177.993 1072.83,14.951"
       fill="#3874ff"
       id="path162" />
    <path
       d="M 1104.58,69.9397 838,223.849 790.435,177.993 1072.83,14.951"
       stroke="#0a047a"
       stroke-width="2"
       stroke-miterlimit="10"
       stroke-linecap="round"
       stroke-linejoin="round"
       id="path164" />
    <path
       d="M 1129.1,54.8275 836.857,223.555 853.931,287.015 1160.85,109.816"
       fill="url(#paint0_linear)"
       id="path166"
       style="fill:url(#paint0_linear-8)" />
    <path
       d="M 1129.1,54.8275 836.857,223.555 853.931,287.015 1160.85,109.816"
       stroke="#0a047a"
       stroke-width="2"
       stroke-miterlimit="10"
       stroke-linecap="round"
       stroke-linejoin="round"
       id="path168" />
    <path
       fill-rule="evenodd"
       clip-rule="evenodd"
       d="m 835.046,290.14 c 2.958,-4.544 4.531,-10.861 4.532,-18.512 -10e-4,-12.843 -4.425,-27.58 -12.458,-41.493 -8.033,-13.914 -18.583,-25.113 -29.705,-31.535 -6.627,-3.826 -12.885,-5.622 -18.3,-5.332 2.17,-7.079 6.114,-12.269 11.32,-15.274 8.148,-4.704 19.386,-4.055 31.749,3.083 24.724,14.275 44.954,49.313 44.954,77.862 -0.001,23.394 -13.583,35.46 -32.092,31.201 z"
       fill="url(#paint1_linear)"
       id="path170"
       style="fill:url(#paint1_linear)" />
    <path
       d="m 839.578,271.628 h 1 v 0 z m -4.532,18.512 -0.225,0.974 c -0.318,-0.073 -0.58,-0.297 -0.703,-0.6 -0.122,-0.303 -0.089,-0.646 0.09,-0.92 z m -7.926,-60.005 -0.866,0.5 z m -29.705,-31.535 0.5,-0.866 v 0 z m -18.3,-5.332 0.053,0.999 c -0.326,0.017 -0.64,-0.126 -0.841,-0.383 -0.201,-0.257 -0.264,-0.597 -0.168,-0.909 z m 11.32,-15.274 -0.5,-0.866 v 0 z m 31.749,3.083 -0.5,0.866 v 0 z m 44.954,77.862 h 1 z m -26.56,12.689 c -10e-4,7.773 -1.597,14.3 -4.694,19.057 l -1.676,-1.091 c 2.819,-4.331 4.369,-10.438 4.37,-17.966 z m -12.591,-41.993 c 8.098,14.028 12.59,28.936 12.591,41.993 h -2 C 838.577,259 834.221,244.434 826.254,230.635 Z m -30.072,-31.901 c 11.308,6.529 21.972,17.873 30.072,31.901 l -1.733,1 c -7.967,-13.799 -18.403,-24.854 -29.339,-31.169 z m -18.853,-5.465 c 5.668,-0.303 12.12,1.578 18.853,5.465 l -1,1.732 c -6.521,-3.764 -12.586,-5.476 -17.747,-5.199 z m -0.903,0.706 c 2.23,-7.276 6.314,-12.694 11.776,-15.847 l 1,1.732 c -4.95,2.857 -8.754,7.819 -10.864,14.701 z m 11.776,-15.847 c 8.564,-4.944 20.201,-4.162 32.749,3.083 l -1,1.732 c -12.177,-7.031 -23.017,-7.547 -30.749,-3.083 z m 32.749,3.083 c 12.551,7.246 23.903,19.721 32.115,33.944 8.211,14.223 13.339,30.291 13.339,44.784 h -2 c 0,-14.056 -4.987,-29.782 -13.072,-43.784 -8.084,-14.002 -19.209,-26.184 -31.382,-33.212 z m 45.454,78.728 c -0.001,11.876 -3.449,21.042 -9.418,26.696 -5.993,5.677 -14.376,7.67 -23.899,5.479 l 0.449,-1.949 c 8.987,2.068 16.649,0.158 22.075,-4.982 5.449,-5.162 8.792,-13.726 8.793,-25.244 z"
       fill="#0a047a"
       id="path172" />
    <path
       fill-rule="evenodd"
       clip-rule="evenodd"
       d="m 829.387,295.698 21.633,-12.49 c 0.018,-0.01 0.036,-0.019 0.053,-0.029 0.024,-0.012 0.047,-0.025 0.069,-0.038 6.716,-3.877 10.414,-12.472 10.415,-24.202 0,-12.842 -4.425,-27.579 -12.457,-41.492 -8.034,-13.914 -18.584,-25.114 -29.706,-31.535 -10.159,-5.865 -19.452,-6.96 -26.168,-3.083 l -21.838,12.608 c 6.705,-3.781 15.939,-2.661 26.027,3.163 11.122,6.422 21.672,17.621 29.706,31.536 8.032,13.912 12.457,28.65 12.457,41.492 -10e-4,11.599 -3.617,20.132 -10.191,24.07 z"
       fill="#efeeea"
       stroke="#0a047a"
       stroke-width="2"
       stroke-miterlimit="10"
       stroke-linecap="round"
       stroke-linejoin="round"
       id="path174" />
  </g>
  <defs
     id="defs33">
    <linearGradient
       id="paint0_linear"
       x1="833.733"
       y1="225.762"
       x2="317.5"
       y2="539"
       gradientUnits="userSpaceOnUse"
       gradientTransform="translate(-5e-6)">
      <stop
         stop-color="#FEC810"
         id="stop28" />
      <stop
         offset="1"
         stop-color="#FF80ED"
         id="stop30" />
    </linearGradient>
    <clipPath
       id="clip0">
      <rect
         width="1161.26"
         height="743.77802"
         fill="#ffffff"
         transform="translate(0,0.554688)"
         id="rect196"
         x="0"
         y="0" />
    </clipPath>
    <linearGradient
       id="paint0_linear-8"
       x1="838.05701"
       y1="259.521"
       x2="1144.97"
       y2="82.321899"
       gradientUnits="userSpaceOnUse">
      <stop
         stop-color="#0A047A"
         id="stop178" />
      <stop
         offset="1"
         stop-color="#3874FF"
         id="stop180" />
    </linearGradient>
    <linearGradient
       id="paint1_linear"
       x1="864.93597"
       y1="208.30099"
       x2="775.784"
       y2="259.77301"
       gradientUnits="userSpaceOnUse">
      <stop
         stop-color="#0A047A"
         id="stop183" />
      <stop
         offset="0.1685"
         stop-color="#151F9A"
         id="stop185" />
      <stop
         offset="0.43"
         stop-color="#2443C5"
         id="stop187" />
      <stop
         offset="0.6652"
         stop-color="#2F5EE5"
         id="stop189" />
      <stop
         offset="0.8632"
         stop-color="#366EF8"
         id="stop191" />
      <stop
         offset="1"
         stop-color="#3874FF"
         id="stop193" />
    </linearGradient>
  </defs>
</svg>
