<svg width="837" height="708" viewBox="0 0 837 708" fill="none" xmlns="http://www.w3.org/2000/svg">
<path fill-rule="evenodd" clip-rule="evenodd" d="M313.702 171.315L223.5 223.387L255.215 241.705L417.812 147.796L398.5 136.642C394.5 139 390.676 145 387 149C386.993 150.998 386.001 151.496 383.378 153.013C375.895 157.339 368.375 161.603 360.856 165.867C353.246 170.182 345.636 174.497 338.064 178.877C335.1 180.377 331.825 181.159 328.503 181.159C325.181 181.16 321.906 180.379 318.942 178.88C312.499 175.156 313.702 171.315 313.702 171.315Z" fill="#FEC810"/>
<path d="M315.382 171.5C314.309 174.065 315.495 176.888 318.942 178.88C321.906 180.379 325.181 181.16 328.503 181.159C331.825 181.159 335.1 180.377 338.064 178.877C353.119 170.169 368.321 161.717 383.378 153.013C385.255 151.928 386.462 150.597 387 149.195" stroke="#3874FF" stroke-width="2" stroke-linecap="round" stroke-linejoin="round"/>
<path d="M163.636 1L1 94.887L255.136 241.671L417.743 147.774L398.225 136.5" stroke="#3874FF" stroke-width="2" stroke-linecap="round" stroke-linejoin="round"/>
<path d="M255.137 241.672V465.423L92.5283 371.542V147.774L255.137 241.672Z" fill="#3874FF" stroke="#3874FF" stroke-width="2" stroke-linecap="round" stroke-linejoin="round"/>
<path fill-rule="evenodd" clip-rule="evenodd" d="M255.136 465.594L255.136 241.672L417.743 147.774V225.5C417.743 225.5 411.527 227.597 401.554 230C393.308 231.986 382.494 234.181 370.5 235.572C361.315 231.016 349.428 231.92 336.49 239.41C320.045 248.907 305.306 267.058 295.665 287.635C288.313 302.732 284.302 319.237 283.907 336.025V448.983L255.136 465.594Z" fill="#0A047A"/>
<path d="M417.743 225.5V147.774L255.136 241.672L255.136 465.594L283.907 448.983V336.025C284.302 319.237 288.313 302.732 295.665 287.635C305.306 267.058 320.045 248.907 336.49 239.41C349.428 231.92 361.315 231.016 370.5 235.572" stroke="#3874FF" stroke-width="2" stroke-linecap="round" stroke-linejoin="round"/>
</svg>
