<?xml version="1.0" encoding="UTF-8" standalone="no"?>
<svg
   width="710"
   height="710"
   viewBox="0 0 710 710"
   fill="none"
   version="1.1"
   id="svg1153"
   sodipodi:docname="hover-4.svg"
   inkscape:version="1.1 (c68e22c387, 2021-05-23)"
   xmlns:inkscape="http://www.inkscape.org/namespaces/inkscape"
   xmlns:sodipodi="http://sodipodi.sourceforge.net/DTD/sodipodi-0.dtd"
   xmlns="http://www.w3.org/2000/svg"
   xmlns:svg="http://www.w3.org/2000/svg">
  <sodipodi:namedview
     id="namedview1155"
     pagecolor="#ffffff"
     bordercolor="#666666"
     borderopacity="1.0"
     inkscape:pageshadow="2"
     inkscape:pageopacity="0.0"
     inkscape:pagecheckerboard="0"
     showgrid="false"
     inkscape:zoom="0.73239437"
     inkscape:cx="354.31731"
     inkscape:cy="354.31731"
     inkscape:window-width="1366"
     inkscape:window-height="705"
     inkscape:window-x="-8"
     inkscape:window-y="-8"
     inkscape:window-maximized="1"
     inkscape:current-layer="svg1153" />
  <g
     clip-path="url(#clip0)"
     id="g1132"
     transform="matrix(1,0,0,1.1877259,0,-133.28541)">
    <path
       d="M 327.303,746 V 228.953 c 0,15.025 7.415,30.051 22.24,43.021 l 33.21,20.066 c 17.709,7.435 37.901,12.087 58.709,13.941 13.865,1.218 27.811,1.218 41.676,0 27.414,-2.443 53.75,-9.718 74.752,-21.846 26.276,-15.172 39.414,-35.184 39.414,-55.182 V 746"
       fill="url(#paint0_linear)"
       id="path1122"
       style="fill:url(#paint0_linear)" />
    <path
       d="M 327.303,746 V 228.953 c 0,15.025 7.415,30.051 22.24,43.021 l 33.21,20.066 c 17.709,7.435 37.901,12.087 58.709,13.941 13.865,1.218 27.811,1.218 41.676,0 27.414,-2.443 53.75,-9.718 74.752,-21.846 26.276,-15.172 39.414,-35.184 39.414,-55.182 V 746"
       stroke="#0a047a"
       stroke-width="2"
       stroke-miterlimit="10"
       stroke-linejoin="round"
       id="path1124" />
    <path
       d="m 350.541,271.405 -0.998,0.569 1.011,-0.582 c 0,0.004 -0.002,0.007 -0.004,0.009 -0.003,0.003 -0.006,0.004 -0.009,0.004 z"
       fill="url(#paint1_linear)"
       stroke="#0a047a"
       stroke-width="2"
       stroke-miterlimit="10"
       stroke-linejoin="round"
       id="path1126"
       style="fill:url(#paint1_linear)" />
    <path
       d="m 597.304,228.946 v 0.007 c 0,19.998 -13.138,40.01 -39.414,55.182 -21.002,12.128 -47.338,19.403 -74.752,21.846 -13.865,1.218 -27.811,1.218 -41.676,0 -20.808,-1.854 -41,-6.506 -58.709,-13.942 l 72.336,-41.756 33.149,-19.142 h 0.007 l 3.801,-2.195 36.088,-20.835 c 8.179,-4.725 7.222,-13.004 -2.115,-18.398 -9.35,-5.394 -23.679,-5.95 -31.858,-1.232 -47.125,27.205 -94.527,54.573 -143.608,82.911 l -1.01,0.582 c -14.825,-12.97 -22.24,-27.996 -22.24,-43.021 v -0.007 c 0,-20.005 13.138,-40.009 39.42,-55.182 52.572,-30.352 138.588,-30.352 191.154,0 26.289,15.186 39.427,35.177 39.427,55.182 z"
       fill="#efeeea"
       stroke="#0a047a"
       stroke-width="2"
       stroke-miterlimit="10"
       stroke-linejoin="round"
       id="path1128" />
    <path
       d="m 528.134,208.11 c -13.781,7.951 -27.559,15.904 -41.335,23.859 -10.193,5.883 -20.384,11.769 -30.573,17.656 -24.489,14.135 -48.98,28.273 -73.474,42.412 0,0 -3.85,9.971 -16.252,7.963 -9.5,-3 -18,-10 -16.958,-28.028 l 87.489,-50.51 34.97,-20.193 22.16,-12.79 c 8.178,-4.718 22.508,-4.162 31.858,1.232 9.336,5.394 10.293,13.673 2.115,18.399 z"
       fill="#ffc400"
       stroke="#0a047a"
       stroke-width="2"
       stroke-linecap="round"
       stroke-linejoin="round"
       id="path1130" />
  </g>
  <defs
     id="defs1151">
    <linearGradient
       id="paint0_linear"
       x1="462.303"
       y1="228.953"
       x2="462.303"
       y2="746"
       gradientUnits="userSpaceOnUse">
      <stop
         stop-color="#FF80ED"
         id="stop1134" />
      <stop
         offset="1"
         stop-color="#FEC810"
         id="stop1136" />
    </linearGradient>
    <linearGradient
       id="paint1_linear"
       x1="350.049"
       y1="271.986"
       x2="350.049"
       y2="271.403"
       gradientUnits="userSpaceOnUse">
      <stop
         stop-color="#FFC400"
         id="stop1139" />
      <stop
         offset="0.392"
         stop-color="#FFA464"
         id="stop1141" />
      <stop
         offset="0.8116"
         stop-color="#FF84C9"
         id="stop1143" />
      <stop
         offset="1"
         stop-color="#FF77F2"
         id="stop1145" />
    </linearGradient>
    <clipPath
       id="clip0">
      <rect
         width="710"
         height="710"
         fill="white"
         id="rect1148" />
    </clipPath>
    <clipPath
       id="clip0-5">
      <rect
         width="710"
         height="710"
         fill="#ffffff"
         id="rect908"
         x="0"
         y="0" />
    </clipPath>
    <linearGradient
       id="paint0_linear-0"
       x1="336.5"
       y1="404.5"
       x2="207.5"
       y2="693.5"
       gradientUnits="userSpaceOnUse">
      <stop
         stop-color="#0B047F"
         id="stop893" />
      <stop
         offset="0.0835"
         stop-color="#25108B"
         id="stop895" />
      <stop
         offset="0.3401"
         stop-color="#7234AF"
         id="stop897" />
      <stop
         offset="0.5691"
         stop-color="#AE51CC"
         id="stop899" />
      <stop
         offset="0.7622"
         stop-color="#DA66E1"
         id="stop901" />
      <stop
         offset="0.9119"
         stop-color="#F572ED"
         id="stop903" />
      <stop
         offset="1"
         stop-color="#FF77F2"
         id="stop905" />
    </linearGradient>
  </defs>
  <g
     id="g1085"
     transform="matrix(1,0,0,1.1469289,-19.608078,58.681817)">
    <g
       clip-path="url(#clip0-5)"
       id="g891"
       transform="translate(27.203,-135.377)">
      <path
         fill-rule="evenodd"
         clip-rule="evenodd"
         d="m 143.131,490.096 c 2.814,1.984 5.823,3.906 9.028,5.756 52.559,30.352 138.581,30.352 191.153,0 26.283,-15.173 39.421,-35.184 39.421,-55.182 0,-15.026 -7.416,-30.051 -22.24,-43.029 0,0 -34.301,19.804 -69.498,40.124 -5.687,3.282 -11.396,6.578 -16.988,9.807 -6.188,3.574 -12.232,7.064 -17.942,10.358 -22.307,12.877 -39.501,22.803 -40.191,23.204 -8.178,4.719 -22.507,4.163 -31.857,-1.231 -4.522,-2.613 -7.08,-5.902 -7.586,-9.135 z"
         fill="#3874ff"
         id="path855" />
      <path
         d="m 143.131,490.096 c 2.814,1.984 5.823,3.906 9.028,5.756 52.559,30.352 138.581,30.352 191.153,0 26.283,-15.173 39.421,-35.184 39.421,-55.182 0,-15.026 -7.416,-30.051 -22.24,-43.029 0,0 -34.301,19.804 -69.498,40.124 -5.687,3.282 -11.396,6.578 -16.988,9.807 -6.188,3.574 -12.232,7.064 -17.942,10.358 -22.307,12.877 -39.501,22.803 -40.191,23.204 -8.178,4.719 -22.507,4.163 -31.857,-1.231 -4.522,-2.613 -7.08,-5.902 -7.586,-9.135"
         stroke="#0a047a"
         stroke-width="2"
         stroke-linecap="round"
         stroke-linejoin="round"
         id="path857" />
      <path
         fill-rule="evenodd"
         clip-rule="evenodd"
         d="m 343.312,495.852 c 26.283,-15.173 39.421,-35.184 39.421,-55.182 V 745.999 H 112.731 V 440.67 c 0,19.998 13.132,40.003 39.428,55.182 52.559,30.352 138.581,30.352 191.153,0 z"
         fill="url(#paint0_linear)"
         stroke="#0a047a"
         stroke-width="2"
         stroke-miterlimit="10"
         stroke-linejoin="round"
         id="path859"
         style="fill:url(#paint0_linear-0)" />
      <line
         x1="130"
         y1="479"
         x2="130"
         y2="746"
         stroke="#0a047a"
         stroke-width="2"
         id="line861" />
      <line
         x1="147"
         y1="493"
         x2="147"
         y2="746"
         stroke="#0a047a"
         stroke-width="2"
         id="line863" />
      <line
         x1="164"
         y1="502"
         x2="164"
         y2="746"
         stroke="#0a047a"
         stroke-width="2"
         id="line865" />
      <line
         x1="181"
         y1="509"
         x2="181"
         y2="746"
         stroke="#0a047a"
         stroke-width="2"
         id="line867" />
      <line
         x1="198"
         y1="513"
         x2="198"
         y2="746"
         stroke="#0a047a"
         stroke-width="2"
         id="line869" />
      <line
         x1="215"
         y1="516"
         x2="215"
         y2="746"
         stroke="#0a047a"
         stroke-width="2"
         id="line871" />
      <line
         x1="232"
         y1="518"
         x2="232"
         y2="746"
         stroke="#0a047a"
         stroke-width="2"
         id="line873" />
      <line
         x1="249"
         y1="519"
         x2="249"
         y2="746"
         stroke="#0a047a"
         stroke-width="2"
         id="line875" />
      <line
         x1="266"
         y1="518"
         x2="266"
         y2="746"
         stroke="#0a047a"
         stroke-width="2"
         id="line877" />
      <line
         x1="283"
         y1="516"
         x2="283"
         y2="746"
         stroke="#0a047a"
         stroke-width="2"
         id="line879" />
      <line
         x1="300"
         y1="513"
         x2="300"
         y2="746"
         stroke="#0a047a"
         stroke-width="2"
         id="line881" />
      <line
         x1="317"
         y1="508"
         x2="317"
         y2="746"
         stroke="#0a047a"
         stroke-width="2"
         id="line883" />
      <line
         x1="334"
         y1="501"
         x2="334"
         y2="746"
         stroke="#0a047a"
         stroke-width="2"
         id="line885" />
      <line
         x1="351"
         y1="491"
         x2="351"
         y2="746"
         stroke="#0a047a"
         stroke-width="2"
         id="line887" />
      <line
         x1="368"
         y1="476"
         x2="368"
         y2="746"
         stroke="#0a047a"
         stroke-width="2"
         id="line889" />
    </g>
    <g
       id="g1029"
       transform="translate(27.203,-135.377)">
      <path
         d="m 382.733,440.67 c 0,19.998 -13.138,40.009 -39.421,55.182 -52.572,30.352 -138.594,30.352 -191.153,0 -26.296,-15.179 -39.428,-35.184 -39.428,-55.182 0,-20.005 13.132,-40.01 39.414,-55.183 20.996,-12.134 47.332,-19.409 74.746,-21.845 13.867,-1.225 27.815,-1.225 41.683,0 20.808,1.854 40.92,6.546 58.629,13.981 -50.137,28.947 -95.276,55.006 -145.308,83.888 -8.179,4.718 -7.215,12.997 2.122,18.392 9.35,5.394 23.679,5.95 31.857,1.231 0.69,-0.401 17.884,-10.327 40.191,-23.204 10.869,-6.271 22.949,-13.251 34.93,-20.165 35.197,-20.319 69.498,-40.124 69.498,-40.124 14.824,12.978 22.24,28.003 22.24,43.029 z"
         fill="#3874ff"
         stroke="#0a047a"
         stroke-width="2"
         stroke-linecap="round"
         stroke-linejoin="round"
         id="path1017" />
      <path
         d="m 327.203,377.623 c -0.868,4.32 -0.868,8.771 0,13.091 1.339,6.091 5.06,13.024 14.276,17.81 l -14.276,8.252 -111.241,64.311 c -8.178,4.719 -22.514,4.163 -31.858,-1.231 -9.343,-5.395 -10.3,-13.674 -2.121,-18.392 z"
         fill="#0a047a"
         stroke="#0a047a"
         stroke-width="2"
         stroke-linecap="round"
         stroke-linejoin="round"
         id="path1019" />
    </g>
  </g>
</svg>
