<svg width="710" height="710" viewBox="0 0 710 710" fill="none" xmlns="http://www.w3.org/2000/svg">
<path d="M382.733 440.67C382.733 460.668 369.595 480.679 343.312 495.852C290.74 526.204 204.718 526.204 152.159 495.852C125.863 480.673 112.731 460.668 112.731 440.67C112.731 420.665 125.863 400.66 152.145 385.487C173.141 373.353 199.477 366.078 226.891 363.642C240.758 362.417 254.706 362.417 268.574 363.642C289.382 365.496 309.494 370.188 327.203 377.623C277.066 406.57 231.927 432.629 181.895 461.511C173.716 466.229 174.68 474.508 184.017 479.903C193.367 485.297 207.696 485.853 215.874 481.134C216.564 480.733 233.758 470.807 256.065 457.93C266.934 451.659 279.014 444.679 290.995 437.765C326.192 417.446 360.493 397.641 360.493 397.641C375.317 410.619 382.733 425.644 382.733 440.67Z" fill="#3874FF" stroke="#0A047A" stroke-width="2" stroke-linecap="round" stroke-linejoin="round"/>
<path d="M327.116 377.67C326.248 381.99 326.248 386.441 327.116 390.761C328.455 396.852 332.176 403.785 341.392 408.571L327.116 416.823L215.875 481.134C207.697 485.853 193.361 485.297 184.017 479.903C174.674 474.508 173.717 466.229 181.896 461.511L327.116 377.67Z" fill="#0A047A" stroke="#0A047A" stroke-width="2" stroke-linecap="round" stroke-linejoin="round"/>
</svg>
